<?xml version="1.0" standalone="no"?>
 <!DOCTYPE svg PUBLIC "-//W3C//DTD SVG 1.1//EN" 
 "http://www.w3.org/Graphics/SVG/1.1/DTD/svg11.dtd"> 
<svg
  xmlns:svg="http://www.w3.org/2000/svg"
  xmlns="http://www.w3.org/2000/svg"
  xmlns:xlink="http://www.w3.org/1999/xlink"
  version="1.1"
  width="29.700220cm" height="21.000720cm" viewBox="0 0 116930 82680">
<title>SVG Picture created as attiny13doctor-F_Cu.svg date 2020/06/21 21:37:38 </title>
  <desc>Picture generated by PCBNEW </desc>
<g style="fill:#000000; fill-opacity:1;stroke:#000000; stroke-opacity:1;
stroke-linecap:round; stroke-linejoin:round;"
 transform="translate(0 0) scale(1 1)">
</g>
<g style="fill:#000000; fill-opacity:0.0; 
stroke:#000000; stroke-width:-0.000393701; stroke-opacity:1; 
stroke-linecap:round; stroke-linejoin:round;">
</g>
<g style="fill:#000000; fill-opacity:1.0; 
stroke:#000000; stroke-width:7.87402; stroke-opacity:1; 
stroke-linecap:round; stroke-linejoin:round;">
<rect x="93044.3" y="7926.69" width="17384.6" height="17018.1" rx="0" />
</g>
<g style="fill:#FFFFFF; fill-opacity:1.0; 
stroke:#FFFFFF; stroke-width:7.87402; stroke-opacity:1; 
stroke-linecap:round; stroke-linejoin:round;">
<g >
</g>
<g style="fill:#FFFFFF; fill-opacity:1.0; 
stroke:#FFFFFF; stroke-width:0; stroke-opacity:1; 
stroke-linecap:round; stroke-linejoin:round;">
<path style="fill:#FFFFFF; fill-opacity:1.0; 
stroke:#FFFFFF; stroke-width:0; stroke-opacity:1; 
stroke-linecap:round; stroke-linejoin:round;fill-rule:evenodd;"
d="M 106314,21699.7
106314,21345.3
107102,21345.3
107102,21699.7
Z" /> 
<path style="fill:#FFFFFF; fill-opacity:1.0; 
stroke:#FFFFFF; stroke-width:0; stroke-opacity:1; 
stroke-linecap:round; stroke-linejoin:round;fill-rule:evenodd;"
d="M 106314,20124.9
106314,19770.5
107102,19770.5
107102,20124.9
Z" /> 
<path style="fill:#FFFFFF; fill-opacity:1.0; 
stroke:#FFFFFF; stroke-width:0; stroke-opacity:1; 
stroke-linecap:round; stroke-linejoin:round;fill-rule:evenodd;"
d="M 106314,18550.1
106314,18195.7
107102,18195.7
107102,18550.1
Z" /> 
<path style="fill:#FFFFFF; fill-opacity:1.0; 
stroke:#FFFFFF; stroke-width:0; stroke-opacity:1; 
stroke-linecap:round; stroke-linejoin:round;fill-rule:evenodd;"
d="M 105054,20912.3
105054,20557.9
105842,20557.9
105842,20912.3
Z" /> 
<path style="fill:#FFFFFF; fill-opacity:1.0; 
stroke:#FFFFFF; stroke-width:0; stroke-opacity:1; 
stroke-linecap:round; stroke-linejoin:round;fill-rule:evenodd;"
d="M 105054,19337.5
105054,18983.1
105842,18983.1
105842,19337.5
Z" /> 
<path style="fill:#FFFFFF; fill-opacity:1.0; 
stroke:#FFFFFF; stroke-width:0; stroke-opacity:1; 
stroke-linecap:round; stroke-linejoin:round;fill-rule:evenodd;"
d="M 105054,17762.7
105054,17408.3
105842,17408.3
105842,17762.7
Z" /> 
</g>
<g >
</g>
<g style="fill:#FFFFFF; fill-opacity:1.0; 
stroke:#FFFFFF; stroke-width:0; stroke-opacity:1; 
stroke-linecap:round; stroke-linejoin:round;">
<path style="fill:#FFFFFF; fill-opacity:1.0; 
stroke:#FFFFFF; stroke-width:0; stroke-opacity:1; 
stroke-linecap:round; stroke-linejoin:round;fill-rule:evenodd;"
d="M 97350.2,10678.9
97359.8,10680.3
97369.1,10682.7
97378.2,10685.9
97387,10690.1
97395.2,10695
97403,10700.8
97410.2,10707.3
97416.6,10714.4
97422.4,10722.2
97427.4,10730.5
97431.5,10739.2
97434.7,10748.3
97437.1,10757.7
97438.5,10767.2
97439,10776.9
97439,11839.9
97438.5,11849.5
97437.1,11859.1
97434.7,11868.4
97431.5,11877.5
97427.4,11886.3
97422.4,11894.6
97416.6,11902.3
97410.2,11909.5
97403,11916
97395.2,11921.7
97387,11926.7
97378.2,11930.8
97369.1,11934.1
97359.8,11936.4
97350.2,11937.8
97340.6,11938.3
95785.4,11938.3
95775.8,11937.8
95766.2,11936.4
95756.9,11934.1
95747.8,11930.8
95739,11926.7
95730.8,11921.7
95723,11916
95715.8,11909.5
95709.4,11902.3
95703.6,11894.6
95698.6,11886.3
95694.5,11877.5
95691.3,11868.4
95688.9,11859.1
95687.5,11849.5
95687,11839.9
95687,10776.9
95687.5,10767.2
95688.9,10757.7
95691.3,10748.3
95694.5,10739.2
95698.6,10730.5
95703.6,10722.2
95709.4,10714.4
95715.8,10707.3
95723,10700.8
95730.8,10695
95739,10690.1
95747.8,10685.9
95756.9,10682.7
95766.2,10680.3
95775.8,10678.9
95785.4,10678.5
97340.6,10678.5
Z" /> 
<path style="fill:#FFFFFF; fill-opacity:1.0; 
stroke:#FFFFFF; stroke-width:0; stroke-opacity:1; 
stroke-linecap:round; stroke-linejoin:round;fill-rule:evenodd;"
d="M 97350.2,12726.2
97359.8,12727.6
97369.1,12729.9
97378.2,12733.2
97387,12737.3
97395.2,12742.3
97403,12748
97410.2,12754.5
97416.6,12761.7
97422.4,12769.4
97427.4,12777.7
97431.5,12786.5
97434.7,12795.6
97437.1,12804.9
97438.5,12814.5
97439,12824.1
97439,13887.1
97438.5,13896.8
97437.1,13906.3
97434.7,13915.7
97431.5,13924.8
97427.4,13933.5
97422.4,13941.8
97416.6,13949.6
97410.2,13956.7
97403,13963.2
97395.2,13969
97387,13973.9
97378.2,13978.1
97369.1,13981.3
97359.8,13983.7
97350.2,13985.1
97340.6,13985.5
95785.4,13985.5
95775.8,13985.1
95766.2,13983.7
95756.9,13981.3
95747.8,13978.1
95739,13973.9
95730.8,13969
95723,13963.2
95715.8,13956.7
95709.4,13949.6
95703.6,13941.8
95698.6,13933.5
95694.5,13924.8
95691.3,13915.7
95688.9,13906.3
95687.5,13896.8
95687,13887.1
95687,12824.1
95687.5,12814.5
95688.9,12804.9
95691.3,12795.6
95694.5,12786.5
95698.6,12777.7
95703.6,12769.4
95709.4,12761.7
95715.8,12754.5
95723,12748
95730.8,12742.3
95739,12737.3
95747.8,12733.2
95756.9,12729.9
95766.2,12727.6
95775.8,12726.2
95785.4,12725.7
97340.6,12725.7
Z" /> 
</g>
<g >
</g>
<g style="fill:#FFFFFF; fill-opacity:1.0; 
stroke:#FFFFFF; stroke-width:0; stroke-opacity:1; 
stroke-linecap:round; stroke-linejoin:round;">
<path style="fill:#FFFFFF; fill-opacity:1.0; 
stroke:#FFFFFF; stroke-width:0; stroke-opacity:1; 
stroke-linecap:round; stroke-linejoin:round;fill-rule:evenodd;"
d="M 101445,13940.5
101131,13940.5
101131,13192.4
101445,13192.4
Z" /> 
<path style="fill:#FFFFFF; fill-opacity:1.0; 
stroke:#FFFFFF; stroke-width:0; stroke-opacity:1; 
stroke-linecap:round; stroke-linejoin:round;fill-rule:evenodd;"
d="M 101819,15121.6
101505,15121.6
101505,14373.5
101819,14373.5
Z" /> 
<path style="fill:#FFFFFF; fill-opacity:1.0; 
stroke:#FFFFFF; stroke-width:0; stroke-opacity:1; 
stroke-linecap:round; stroke-linejoin:round;fill-rule:evenodd;"
d="M 101071,15121.6
100757,15121.6
100757,14373.5
101071,14373.5
Z" /> 
</g>
<g >
</g>
<g style="fill:#FFFFFF; fill-opacity:1.0; 
stroke:#FFFFFF; stroke-width:0; stroke-opacity:1; 
stroke-linecap:round; stroke-linejoin:round;">
<path style="fill:#FFFFFF; fill-opacity:1.0; 
stroke:#FFFFFF; stroke-width:0; stroke-opacity:1; 
stroke-linecap:round; stroke-linejoin:round;fill-rule:evenodd;"
d="M 104093,10664.2
104099,10665
104104,10666.4
104110,10668.4
104115,10670.9
104120,10673.8
104125,10677.3
104129,10681.2
104133,10685.5
104136,10690.1
104139,10695.1
104142,10700.3
104144,10705.8
104145,10711.4
104146,10717.2
104146,10722.9
104146,10841.1
104146,10846.8
104145,10852.6
104144,10858.2
104142,10863.7
104139,10868.9
104136,10873.9
104133,10878.5
104129,10882.8
104125,10886.7
104120,10890.2
104115,10893.1
104110,10895.6
104104,10897.6
104099,10899
104093,10899.8
104087,10900.1
103438,10900.1
103432,10899.8
103426,10899
103420,10897.6
103415,10895.6
103410,10893.1
103405,10890.2
103400,10886.7
103396,10882.8
103392,10878.5
103389,10873.9
103386,10868.9
103383,10863.7
103381,10858.2
103380,10852.6
103379,10846.8
103379,10841.1
103379,10722.9
103379,10717.2
103380,10711.4
103381,10705.8
103383,10700.3
103386,10695.1
103389,10690.1
103392,10685.5
103396,10681.2
103400,10677.3
103405,10673.8
103410,10670.9
103415,10668.4
103420,10666.4
103426,10665
103432,10664.2
103438,10663.9
104087,10663.9
Z" /> 
<path style="fill:#FFFFFF; fill-opacity:1.0; 
stroke:#FFFFFF; stroke-width:0; stroke-opacity:1; 
stroke-linecap:round; stroke-linejoin:round;fill-rule:evenodd;"
d="M 104093,11164.2
104099,11165
104104,11166.4
104110,11168.4
104115,11170.9
104120,11173.8
104125,11177.3
104129,11181.2
104133,11185.5
104136,11190.1
104139,11195.1
104142,11200.3
104144,11205.8
104145,11211.4
104146,11217.2
104146,11222.9
104146,11341.1
104146,11346.8
104145,11352.6
104144,11358.2
104142,11363.7
104139,11368.9
104136,11373.9
104133,11378.5
104129,11382.8
104125,11386.7
104120,11390.2
104115,11393.1
104110,11395.6
104104,11397.6
104099,11399
104093,11399.8
104087,11400.1
103438,11400.1
103432,11399.8
103426,11399
103420,11397.6
103415,11395.6
103410,11393.1
103405,11390.2
103400,11386.7
103396,11382.8
103392,11378.5
103389,11373.9
103386,11368.9
103383,11363.7
103381,11358.2
103380,11352.6
103379,11346.8
103379,11341.1
103379,11222.9
103379,11217.2
103380,11211.4
103381,11205.8
103383,11200.3
103386,11195.1
103389,11190.1
103392,11185.5
103396,11181.2
103400,11177.3
103405,11173.8
103410,11170.9
103415,11168.4
103420,11166.4
103426,11165
103432,11164.2
103438,11163.9
104087,11163.9
Z" /> 
<path style="fill:#FFFFFF; fill-opacity:1.0; 
stroke:#FFFFFF; stroke-width:0; stroke-opacity:1; 
stroke-linecap:round; stroke-linejoin:round;fill-rule:evenodd;"
d="M 104093,11664.2
104099,11665
104104,11666.4
104110,11668.4
104115,11670.9
104120,11673.8
104125,11677.3
104129,11681.2
104133,11685.5
104136,11690.1
104139,11695.1
104142,11700.3
104144,11705.8
104145,11711.4
104146,11717.2
104146,11722.9
104146,11841.1
104146,11846.8
104145,11852.6
104144,11858.2
104142,11863.7
104139,11868.9
104136,11873.9
104133,11878.5
104129,11882.8
104125,11886.7
104120,11890.2
104115,11893.1
104110,11895.6
104104,11897.6
104099,11899
104093,11899.8
104087,11900.1
103438,11900.1
103432,11899.8
103426,11899
103420,11897.6
103415,11895.6
103410,11893.1
103405,11890.2
103400,11886.7
103396,11882.8
103392,11878.5
103389,11873.9
103386,11868.9
103383,11863.7
103381,11858.2
103380,11852.6
103379,11846.8
103379,11841.1
103379,11722.9
103379,11717.2
103380,11711.4
103381,11705.8
103383,11700.3
103386,11695.1
103389,11690.1
103392,11685.5
103396,11681.2
103400,11677.3
103405,11673.8
103410,11670.9
103415,11668.4
103420,11666.4
103426,11665
103432,11664.2
103438,11663.9
104087,11663.9
Z" /> 
<path style="fill:#FFFFFF; fill-opacity:1.0; 
stroke:#FFFFFF; stroke-width:0; stroke-opacity:1; 
stroke-linecap:round; stroke-linejoin:round;fill-rule:evenodd;"
d="M 104093,12164.2
104099,12165
104104,12166.4
104110,12168.4
104115,12170.9
104120,12173.8
104125,12177.3
104129,12181.2
104133,12185.5
104136,12190.1
104139,12195.1
104142,12200.3
104144,12205.8
104145,12211.4
104146,12217.2
104146,12222.9
104146,12341.1
104146,12346.8
104145,12352.6
104144,12358.2
104142,12363.7
104139,12368.9
104136,12373.9
104133,12378.5
104129,12382.8
104125,12386.7
104120,12390.2
104115,12393.1
104110,12395.6
104104,12397.6
104099,12399
104093,12399.8
104087,12400.1
103438,12400.1
103432,12399.8
103426,12399
103420,12397.6
103415,12395.6
103410,12393.1
103405,12390.2
103400,12386.7
103396,12382.8
103392,12378.5
103389,12373.9
103386,12368.9
103383,12363.7
103381,12358.2
103380,12352.6
103379,12346.8
103379,12341.1
103379,12222.9
103379,12217.2
103380,12211.4
103381,12205.8
103383,12200.3
103386,12195.1
103389,12190.1
103392,12185.5
103396,12181.2
103400,12177.3
103405,12173.8
103410,12170.9
103415,12168.4
103420,12166.4
103426,12165
103432,12164.2
103438,12163.9
104087,12163.9
Z" /> 
<path style="fill:#FFFFFF; fill-opacity:1.0; 
stroke:#FFFFFF; stroke-width:0; stroke-opacity:1; 
stroke-linecap:round; stroke-linejoin:round;fill-rule:evenodd;"
d="M 102144,12164.2
102150,12165
102156,12166.4
102161,12168.4
102166,12170.9
102171,12173.8
102176,12177.3
102180,12181.2
102184,12185.5
102187,12190.1
102190,12195.1
102193,12200.3
102195,12205.8
102196,12211.4
102197,12217.2
102197,12222.9
102197,12341.1
102197,12346.8
102196,12352.6
102195,12358.2
102193,12363.7
102190,12368.9
102187,12373.9
102184,12378.5
102180,12382.8
102176,12386.7
102171,12390.2
102166,12393.1
102161,12395.6
102156,12397.6
102150,12399
102144,12399.8
102138,12400.1
101489,12400.1
101483,12399.8
101477,12399
101472,12397.6
101466,12395.6
101461,12393.1
101456,12390.2
101451,12386.7
101447,12382.8
101443,12378.5
101440,12373.9
101437,12368.9
101434,12363.7
101432,12358.2
101431,12352.6
101430,12346.8
101430,12341.1
101430,12222.9
101430,12217.2
101431,12211.4
101432,12205.8
101434,12200.3
101437,12195.1
101440,12190.1
101443,12185.5
101447,12181.2
101451,12177.3
101456,12173.8
101461,12170.9
101466,12168.4
101472,12166.4
101477,12165
101483,12164.2
101489,12163.9
102138,12163.9
Z" /> 
<path style="fill:#FFFFFF; fill-opacity:1.0; 
stroke:#FFFFFF; stroke-width:0; stroke-opacity:1; 
stroke-linecap:round; stroke-linejoin:round;fill-rule:evenodd;"
d="M 102144,11664.2
102150,11665
102156,11666.4
102161,11668.4
102166,11670.9
102171,11673.8
102176,11677.3
102180,11681.2
102184,11685.5
102187,11690.1
102190,11695.1
102193,11700.3
102195,11705.8
102196,11711.4
102197,11717.2
102197,11722.9
102197,11841.1
102197,11846.8
102196,11852.6
102195,11858.2
102193,11863.7
102190,11868.9
102187,11873.9
102184,11878.5
102180,11882.8
102176,11886.7
102171,11890.2
102166,11893.1
102161,11895.6
102156,11897.6
102150,11899
102144,11899.8
102138,11900.1
101489,11900.1
101483,11899.8
101477,11899
101472,11897.6
101466,11895.6
101461,11893.1
101456,11890.2
101451,11886.7
101447,11882.8
101443,11878.5
101440,11873.9
101437,11868.9
101434,11863.7
101432,11858.2
101431,11852.6
101430,11846.8
101430,11841.1
101430,11722.9
101430,11717.2
101431,11711.4
101432,11705.8
101434,11700.3
101437,11695.1
101440,11690.1
101443,11685.5
101447,11681.2
101451,11677.3
101456,11673.8
101461,11670.9
101466,11668.4
101472,11666.4
101477,11665
101483,11664.2
101489,11663.9
102138,11663.9
Z" /> 
<path style="fill:#FFFFFF; fill-opacity:1.0; 
stroke:#FFFFFF; stroke-width:0; stroke-opacity:1; 
stroke-linecap:round; stroke-linejoin:round;fill-rule:evenodd;"
d="M 102144,11164.2
102150,11165
102156,11166.4
102161,11168.4
102166,11170.9
102171,11173.8
102176,11177.3
102180,11181.2
102184,11185.5
102187,11190.1
102190,11195.1
102193,11200.3
102195,11205.8
102196,11211.4
102197,11217.2
102197,11222.9
102197,11341.1
102197,11346.8
102196,11352.6
102195,11358.2
102193,11363.7
102190,11368.9
102187,11373.9
102184,11378.5
102180,11382.8
102176,11386.7
102171,11390.2
102166,11393.1
102161,11395.6
102156,11397.6
102150,11399
102144,11399.8
102138,11400.1
101489,11400.1
101483,11399.8
101477,11399
101472,11397.6
101466,11395.6
101461,11393.1
101456,11390.2
101451,11386.7
101447,11382.8
101443,11378.5
101440,11373.9
101437,11368.9
101434,11363.7
101432,11358.2
101431,11352.6
101430,11346.8
101430,11341.1
101430,11222.9
101430,11217.2
101431,11211.4
101432,11205.8
101434,11200.3
101437,11195.1
101440,11190.1
101443,11185.5
101447,11181.2
101451,11177.3
101456,11173.8
101461,11170.9
101466,11168.4
101472,11166.4
101477,11165
101483,11164.2
101489,11163.9
102138,11163.9
Z" /> 
<path style="fill:#FFFFFF; fill-opacity:1.0; 
stroke:#FFFFFF; stroke-width:0; stroke-opacity:1; 
stroke-linecap:round; stroke-linejoin:round;fill-rule:evenodd;"
d="M 102144,10664.2
102150,10665
102156,10666.4
102161,10668.4
102166,10670.9
102171,10673.8
102176,10677.3
102180,10681.2
102184,10685.5
102187,10690.1
102190,10695.1
102193,10700.3
102195,10705.8
102196,10711.4
102197,10717.2
102197,10722.9
102197,10841.1
102197,10846.8
102196,10852.6
102195,10858.2
102193,10863.7
102190,10868.9
102187,10873.9
102184,10878.5
102180,10882.8
102176,10886.7
102171,10890.2
102166,10893.1
102161,10895.6
102156,10897.6
102150,10899
102144,10899.8
102138,10900.1
101489,10900.1
101483,10899.8
101477,10899
101472,10897.6
101466,10895.6
101461,10893.1
101456,10890.2
101451,10886.7
101447,10882.8
101443,10878.5
101440,10873.9
101437,10868.9
101434,10863.7
101432,10858.2
101431,10852.6
101430,10846.8
101430,10841.1
101430,10722.9
101430,10717.2
101431,10711.4
101432,10705.8
101434,10700.3
101437,10695.1
101440,10690.1
101443,10685.5
101447,10681.2
101451,10677.3
101456,10673.8
101461,10670.9
101466,10668.4
101472,10666.4
101477,10665
101483,10664.2
101489,10663.9
102138,10663.9
Z" /> 
</g>
<g >
</g>
<g style="fill:#FFFFFF; fill-opacity:1.0; 
stroke:#FFFFFF; stroke-width:0; stroke-opacity:1; 
stroke-linecap:round; stroke-linejoin:round;">
<path style="fill:#FFFFFF; fill-opacity:1.0; 
stroke:#FFFFFF; stroke-width:0; stroke-opacity:1; 
stroke-linecap:round; stroke-linejoin:round;fill-rule:evenodd;"
d="M 101020,16480.2
100804,16480.2
100804,15850.3
101020,15850.3
Z" /> 
<path style="fill:#FFFFFF; fill-opacity:1.0; 
stroke:#FFFFFF; stroke-width:0; stroke-opacity:1; 
stroke-linecap:round; stroke-linejoin:round;fill-rule:evenodd;"
d="M 101335,16480.2
101119,16480.2
101119,15850.3
101335,15850.3
Z" /> 
<path style="fill:#FFFFFF; fill-opacity:1.0; 
stroke:#FFFFFF; stroke-width:0; stroke-opacity:1; 
stroke-linecap:round; stroke-linejoin:round;fill-rule:evenodd;"
d="M 101650,16480.2
101434,16480.2
101434,15850.3
101650,15850.3
Z" /> 
<path style="fill:#FFFFFF; fill-opacity:1.0; 
stroke:#FFFFFF; stroke-width:0; stroke-opacity:1; 
stroke-linecap:round; stroke-linejoin:round;fill-rule:evenodd;"
d="M 101965,16480.2
101749,16480.2
101749,15850.3
101965,15850.3
Z" /> 
<path style="fill:#FFFFFF; fill-opacity:1.0; 
stroke:#FFFFFF; stroke-width:0; stroke-opacity:1; 
stroke-linecap:round; stroke-linejoin:round;fill-rule:evenodd;"
d="M 102280,16480.2
102064,16480.2
102064,15850.3
102280,15850.3
Z" /> 
<path style="fill:#FFFFFF; fill-opacity:1.0; 
stroke:#FFFFFF; stroke-width:0; stroke-opacity:1; 
stroke-linecap:round; stroke-linejoin:round;fill-rule:evenodd;"
d="M 102595,16480.2
102379,16480.2
102379,15850.3
102595,15850.3
Z" /> 
<path style="fill:#FFFFFF; fill-opacity:1.0; 
stroke:#FFFFFF; stroke-width:0; stroke-opacity:1; 
stroke-linecap:round; stroke-linejoin:round;fill-rule:evenodd;"
d="M 102910,16480.2
102694,16480.2
102694,15850.3
102910,15850.3
Z" /> 
<path style="fill:#FFFFFF; fill-opacity:1.0; 
stroke:#FFFFFF; stroke-width:0; stroke-opacity:1; 
stroke-linecap:round; stroke-linejoin:round;fill-rule:evenodd;"
d="M 103225,16480.2
103009,16480.2
103009,15850.3
103225,15850.3
Z" /> 
<path style="fill:#FFFFFF; fill-opacity:1.0; 
stroke:#FFFFFF; stroke-width:0; stroke-opacity:1; 
stroke-linecap:round; stroke-linejoin:round;fill-rule:evenodd;"
d="M 103373,16844.4
103373,16627.8
104003,16627.8
104003,16844.4
Z" /> 
<path style="fill:#FFFFFF; fill-opacity:1.0; 
stroke:#FFFFFF; stroke-width:0; stroke-opacity:1; 
stroke-linecap:round; stroke-linejoin:round;fill-rule:evenodd;"
d="M 103373,17159.3
103373,16942.8
104003,16942.8
104003,17159.3
Z" /> 
<path style="fill:#FFFFFF; fill-opacity:1.0; 
stroke:#FFFFFF; stroke-width:0; stroke-opacity:1; 
stroke-linecap:round; stroke-linejoin:round;fill-rule:evenodd;"
d="M 103373,17474.3
103373,17257.7
104003,17257.7
104003,17474.3
Z" /> 
<path style="fill:#FFFFFF; fill-opacity:1.0; 
stroke:#FFFFFF; stroke-width:0; stroke-opacity:1; 
stroke-linecap:round; stroke-linejoin:round;fill-rule:evenodd;"
d="M 103373,17789.2
103373,17572.7
104003,17572.7
104003,17789.2
Z" /> 
<path style="fill:#FFFFFF; fill-opacity:1.0; 
stroke:#FFFFFF; stroke-width:0; stroke-opacity:1; 
stroke-linecap:round; stroke-linejoin:round;fill-rule:evenodd;"
d="M 103373,18104.2
103373,17887.7
104003,17887.7
104003,18104.2
Z" /> 
<path style="fill:#FFFFFF; fill-opacity:1.0; 
stroke:#FFFFFF; stroke-width:0; stroke-opacity:1; 
stroke-linecap:round; stroke-linejoin:round;fill-rule:evenodd;"
d="M 103373,18419.2
103373,18202.6
104003,18202.6
104003,18419.2
Z" /> 
<path style="fill:#FFFFFF; fill-opacity:1.0; 
stroke:#FFFFFF; stroke-width:0; stroke-opacity:1; 
stroke-linecap:round; stroke-linejoin:round;fill-rule:evenodd;"
d="M 103373,18734.1
103373,18517.6
104003,18517.6
104003,18734.1
Z" /> 
<path style="fill:#FFFFFF; fill-opacity:1.0; 
stroke:#FFFFFF; stroke-width:0; stroke-opacity:1; 
stroke-linecap:round; stroke-linejoin:round;fill-rule:evenodd;"
d="M 103373,19049.1
103373,18832.6
104003,18832.6
104003,19049.1
Z" /> 
<path style="fill:#FFFFFF; fill-opacity:1.0; 
stroke:#FFFFFF; stroke-width:0; stroke-opacity:1; 
stroke-linecap:round; stroke-linejoin:round;fill-rule:evenodd;"
d="M 103225,19826.6
103009,19826.6
103009,19196.7
103225,19196.7
Z" /> 
<path style="fill:#FFFFFF; fill-opacity:1.0; 
stroke:#FFFFFF; stroke-width:0; stroke-opacity:1; 
stroke-linecap:round; stroke-linejoin:round;fill-rule:evenodd;"
d="M 102910,19826.6
102694,19826.6
102694,19196.7
102910,19196.7
Z" /> 
<path style="fill:#FFFFFF; fill-opacity:1.0; 
stroke:#FFFFFF; stroke-width:0; stroke-opacity:1; 
stroke-linecap:round; stroke-linejoin:round;fill-rule:evenodd;"
d="M 102595,19826.6
102379,19826.6
102379,19196.7
102595,19196.7
Z" /> 
<path style="fill:#FFFFFF; fill-opacity:1.0; 
stroke:#FFFFFF; stroke-width:0; stroke-opacity:1; 
stroke-linecap:round; stroke-linejoin:round;fill-rule:evenodd;"
d="M 102280,19826.6
102064,19826.6
102064,19196.7
102280,19196.7
Z" /> 
<path style="fill:#FFFFFF; fill-opacity:1.0; 
stroke:#FFFFFF; stroke-width:0; stroke-opacity:1; 
stroke-linecap:round; stroke-linejoin:round;fill-rule:evenodd;"
d="M 101965,19826.6
101749,19826.6
101749,19196.7
101965,19196.7
Z" /> 
<path style="fill:#FFFFFF; fill-opacity:1.0; 
stroke:#FFFFFF; stroke-width:0; stroke-opacity:1; 
stroke-linecap:round; stroke-linejoin:round;fill-rule:evenodd;"
d="M 101650,19826.6
101434,19826.6
101434,19196.7
101650,19196.7
Z" /> 
<path style="fill:#FFFFFF; fill-opacity:1.0; 
stroke:#FFFFFF; stroke-width:0; stroke-opacity:1; 
stroke-linecap:round; stroke-linejoin:round;fill-rule:evenodd;"
d="M 101335,19826.6
101119,19826.6
101119,19196.7
101335,19196.7
Z" /> 
<path style="fill:#FFFFFF; fill-opacity:1.0; 
stroke:#FFFFFF; stroke-width:0; stroke-opacity:1; 
stroke-linecap:round; stroke-linejoin:round;fill-rule:evenodd;"
d="M 101020,19826.6
100804,19826.6
100804,19196.7
101020,19196.7
Z" /> 
<path style="fill:#FFFFFF; fill-opacity:1.0; 
stroke:#FFFFFF; stroke-width:0; stroke-opacity:1; 
stroke-linecap:round; stroke-linejoin:round;fill-rule:evenodd;"
d="M 100026,19049.1
100026,18832.6
100656,18832.6
100656,19049.1
Z" /> 
<path style="fill:#FFFFFF; fill-opacity:1.0; 
stroke:#FFFFFF; stroke-width:0; stroke-opacity:1; 
stroke-linecap:round; stroke-linejoin:round;fill-rule:evenodd;"
d="M 100026,18734.1
100026,18517.6
100656,18517.6
100656,18734.1
Z" /> 
<path style="fill:#FFFFFF; fill-opacity:1.0; 
stroke:#FFFFFF; stroke-width:0; stroke-opacity:1; 
stroke-linecap:round; stroke-linejoin:round;fill-rule:evenodd;"
d="M 100026,18419.2
100026,18202.6
100656,18202.6
100656,18419.2
Z" /> 
<path style="fill:#FFFFFF; fill-opacity:1.0; 
stroke:#FFFFFF; stroke-width:0; stroke-opacity:1; 
stroke-linecap:round; stroke-linejoin:round;fill-rule:evenodd;"
d="M 100026,18104.2
100026,17887.7
100656,17887.7
100656,18104.2
Z" /> 
<path style="fill:#FFFFFF; fill-opacity:1.0; 
stroke:#FFFFFF; stroke-width:0; stroke-opacity:1; 
stroke-linecap:round; stroke-linejoin:round;fill-rule:evenodd;"
d="M 100026,17789.2
100026,17572.7
100656,17572.7
100656,17789.2
Z" /> 
<path style="fill:#FFFFFF; fill-opacity:1.0; 
stroke:#FFFFFF; stroke-width:0; stroke-opacity:1; 
stroke-linecap:round; stroke-linejoin:round;fill-rule:evenodd;"
d="M 100026,17474.3
100026,17257.7
100656,17257.7
100656,17474.3
Z" /> 
<path style="fill:#FFFFFF; fill-opacity:1.0; 
stroke:#FFFFFF; stroke-width:0; stroke-opacity:1; 
stroke-linecap:round; stroke-linejoin:round;fill-rule:evenodd;"
d="M 100026,17159.3
100026,16942.8
100656,16942.8
100656,17159.3
Z" /> 
<path style="fill:#FFFFFF; fill-opacity:1.0; 
stroke:#FFFFFF; stroke-width:0; stroke-opacity:1; 
stroke-linecap:round; stroke-linejoin:round;fill-rule:evenodd;"
d="M 100026,16844.4
100026,16627.8
100656,16627.8
100656,16844.4
Z" /> 
</g>
<g >
</g>
<g style="fill:#FFFFFF; fill-opacity:1.0; 
stroke:#FFFFFF; stroke-width:0; stroke-opacity:1; 
stroke-linecap:round; stroke-linejoin:round;">
<path style="fill:#FFFFFF; fill-opacity:1.0; 
stroke:#FFFFFF; stroke-width:0; stroke-opacity:1; 
stroke-linecap:round; stroke-linejoin:round;fill-rule:evenodd;"
d="M 99021.9,18192.2
99021.9,18782.8
98234.5,18782.8
98234.5,18192.2
Z" /> 
<path style="fill:#FFFFFF; fill-opacity:1.0; 
stroke:#FFFFFF; stroke-width:0; stroke-opacity:1; 
stroke-linecap:round; stroke-linejoin:round;fill-rule:evenodd;"
d="M 99021.9,16381.2
99021.9,16971.8
98234.5,16971.8
98234.5,16381.2
Z" /> 
<path style="fill:#FFFFFF; fill-opacity:1.0; 
stroke:#FFFFFF; stroke-width:0; stroke-opacity:1; 
stroke-linecap:round; stroke-linejoin:round;fill-rule:evenodd;"
d="M 99021.9,17286.7
99021.9,17877.3
98234.5,17877.3
98234.5,17286.7
Z" /> 
<path style="fill:#FFFFFF; fill-opacity:1.0; 
stroke:#FFFFFF; stroke-width:0; stroke-opacity:1; 
stroke-linecap:round; stroke-linejoin:round;fill-rule:evenodd;"
d="M 96541.5,16834
96541.5,18330
95754.1,18330
95754.1,16834
Z" /> 
</g>
<g >
</g>
<g style="fill:#FFFFFF; fill-opacity:1.0; 
stroke:#FFFFFF; stroke-width:0; stroke-opacity:1; 
stroke-linecap:round; stroke-linejoin:round;">
<path style="fill:#FFFFFF; fill-opacity:1.0; 
stroke:#FFFFFF; stroke-width:0; stroke-opacity:1; 
stroke-linecap:round; stroke-linejoin:round;fill-rule:evenodd;"
d="M 100379,13281.9
100389,13283.3
100398,13285.6
100407,13288.9
100416,13293
100424,13298
100432,13303.8
100439,13310.2
100446,13317.4
100451,13325.2
100456,13333.4
100460,13342.2
100464,13351.3
100466,13360.6
100467,13370.2
100468,13379.8
100468,13734.2
100467,13743.8
100466,13753.4
100464,13762.7
100460,13771.8
100456,13780.6
100451,13788.8
100446,13796.6
100439,13803.8
100432,13810.2
100424,13816
100416,13821
100407,13825.1
100398,13828.4
100389,13830.7
100379,13832.1
100369,13832.6
100114,13832.6
100104,13832.1
100094,13830.7
100085,13828.4
100076,13825.1
100067,13821
100059,13816
100051,13810.2
100044,13803.8
100038,13796.6
100032,13788.8
100027,13780.6
100023,13771.8
100019,13762.7
100017,13753.4
100016,13743.8
100015,13734.2
100015,13379.8
100016,13370.2
100017,13360.6
100019,13351.3
100023,13342.2
100027,13333.4
100032,13325.2
100038,13317.4
100044,13310.2
100051,13303.8
100059,13298
100067,13293
100076,13288.9
100085,13285.6
100094,13283.3
100104,13281.9
100114,13281.4
100369,13281.4
Z" /> 
<path style="fill:#FFFFFF; fill-opacity:1.0; 
stroke:#FFFFFF; stroke-width:0; stroke-opacity:1; 
stroke-linecap:round; stroke-linejoin:round;fill-rule:evenodd;"
d="M 99572.1,13281.9
99581.6,13283.3
99591,13285.6
99600.1,13288.9
99608.8,13293
99617.1,13298
99624.9,13303.8
99632,13310.2
99638.5,13317.4
99644.2,13325.2
99649.2,13333.4
99653.3,13342.2
99656.6,13351.3
99658.9,13360.6
99660.4,13370.2
99660.8,13379.8
99660.8,13734.2
99660.4,13743.8
99658.9,13753.4
99656.6,13762.7
99653.3,13771.8
99649.2,13780.6
99644.2,13788.8
99638.5,13796.6
99632,13803.8
99624.9,13810.2
99617.1,13816
99608.8,13821
99600.1,13825.1
99591,13828.4
99581.6,13830.7
99572.1,13832.1
99562.4,13832.6
99306.5,13832.6
99296.9,13832.1
99287.3,13830.7
99277.9,13828.4
99268.8,13825.1
99260.1,13821
99251.8,13816
99244.1,13810.2
99236.9,13803.8
99230.4,13796.6
99224.7,13788.8
99219.7,13780.6
99215.6,13771.8
99212.3,13762.7
99210,13753.4
99208.6,13743.8
99208.1,13734.2
99208.1,13379.8
99208.6,13370.2
99210,13360.6
99212.3,13351.3
99215.6,13342.2
99219.7,13333.4
99224.7,13325.2
99230.4,13317.4
99236.9,13310.2
99244.1,13303.8
99251.8,13298
99260.1,13293
99268.8,13288.9
99277.9,13285.6
99287.3,13283.3
99296.9,13281.9
99306.5,13281.4
99562.4,13281.4
Z" /> 
</g>
<g >
</g>
<g style="fill:#FFFFFF; fill-opacity:1.0; 
stroke:#FFFFFF; stroke-width:0; stroke-opacity:1; 
stroke-linecap:round; stroke-linejoin:round;">
<path style="fill:#FFFFFF; fill-opacity:1.0; 
stroke:#FFFFFF; stroke-width:0; stroke-opacity:1; 
stroke-linecap:round; stroke-linejoin:round;fill-rule:evenodd;"
d="M 102550,14609.6
102559,14611.1
102569,14613.4
102578,14616.7
102587,14620.8
102595,14625.8
102603,14631.5
102610,14638
102616,14645.1
102622,14652.9
102627,14661.2
102631,14669.9
102634,14679
102637,14688.4
102638,14697.9
102639,14707.6
102639,14963.5
102638,14973.1
102637,14982.7
102634,14992.1
102631,15001.2
102627,15009.9
102622,15018.2
102616,15025.9
102610,15033.1
102603,15039.6
102595,15045.3
102587,15050.3
102578,15054.4
102569,15057.7
102559,15060
102550,15061.4
102540,15061.9
102186,15061.9
102176,15061.4
102167,15060
102157,15057.7
102148,15054.4
102139,15050.3
102131,15045.3
102123,15039.6
102116,15033.1
102110,15025.9
102104,15018.2
102099,15009.9
102095,15001.2
102092,14992.1
102089,14982.7
102088,14973.1
102087,14963.5
102087,14707.6
102088,14697.9
102089,14688.4
102092,14679
102095,14669.9
102099,14661.2
102104,14652.9
102110,14645.1
102116,14638
102123,14631.5
102131,14625.8
102139,14620.8
102148,14616.7
102157,14613.4
102167,14611.1
102176,14609.6
102186,14609.2
102540,14609.2
Z" /> 
<path style="fill:#FFFFFF; fill-opacity:1.0; 
stroke:#FFFFFF; stroke-width:0; stroke-opacity:1; 
stroke-linecap:round; stroke-linejoin:round;fill-rule:evenodd;"
d="M 102550,13802.6
102559,13804
102569,13806.3
102578,13809.6
102587,13813.7
102595,13818.7
102603,13824.4
102610,13830.9
102616,13838.1
102622,13845.8
102627,13854.1
102631,13862.8
102634,13871.9
102637,13881.3
102638,13890.9
102639,13900.5
102639,14156.4
102638,14166.1
102637,14175.6
102634,14185
102631,14194.1
102627,14202.8
102622,14211.1
102616,14218.9
102610,14226
102603,14232.5
102595,14238.2
102587,14243.2
102578,14247.3
102569,14250.6
102559,14252.9
102550,14254.4
102540,14254.8
102186,14254.8
102176,14254.4
102167,14252.9
102157,14250.6
102148,14247.3
102139,14243.2
102131,14238.2
102123,14232.5
102116,14226
102110,14218.9
102104,14211.1
102099,14202.8
102095,14194.1
102092,14185
102089,14175.6
102088,14166.1
102087,14156.4
102087,13900.5
102088,13890.9
102089,13881.3
102092,13871.9
102095,13862.8
102099,13854.1
102104,13845.8
102110,13838.1
102116,13830.9
102123,13824.4
102131,13818.7
102139,13813.7
102148,13809.6
102157,13806.3
102167,13804
102176,13802.6
102186,13802.1
102540,13802.1
Z" /> 
</g>
<g >
</g>
<g style="fill:#FFFFFF; fill-opacity:1.0; 
stroke:#FFFFFF; stroke-width:0; stroke-opacity:1; 
stroke-linecap:round; stroke-linejoin:round;">
<path style="fill:#FFFFFF; fill-opacity:1.0; 
stroke:#FFFFFF; stroke-width:0; stroke-opacity:1; 
stroke-linecap:round; stroke-linejoin:round;fill-rule:evenodd;"
d="M 103300,14609.6
103309,14611.1
103319,14613.4
103328,14616.7
103337,14620.8
103345,14625.8
103353,14631.5
103360,14638
103366,14645.1
103372,14652.9
103377,14661.2
103381,14669.9
103384,14679
103387,14688.4
103388,14697.9
103389,14707.6
103389,14963.5
103388,14973.1
103387,14982.7
103384,14992.1
103381,15001.2
103377,15009.9
103372,15018.2
103366,15025.9
103360,15033.1
103353,15039.6
103345,15045.3
103337,15050.3
103328,15054.4
103319,15057.7
103309,15060
103300,15061.4
103290,15061.9
102936,15061.9
102926,15061.4
102917,15060
102907,15057.7
102898,15054.4
102889,15050.3
102881,15045.3
102873,15039.6
102866,15033.1
102860,15025.9
102854,15018.2
102849,15009.9
102845,15001.2
102842,14992.1
102839,14982.7
102838,14973.1
102837,14963.5
102837,14707.6
102838,14697.9
102839,14688.4
102842,14679
102845,14669.9
102849,14661.2
102854,14652.9
102860,14645.1
102866,14638
102873,14631.5
102881,14625.8
102889,14620.8
102898,14616.7
102907,14613.4
102917,14611.1
102926,14609.6
102936,14609.2
103290,14609.2
Z" /> 
<path style="fill:#FFFFFF; fill-opacity:1.0; 
stroke:#FFFFFF; stroke-width:0; stroke-opacity:1; 
stroke-linecap:round; stroke-linejoin:round;fill-rule:evenodd;"
d="M 103300,13802.6
103309,13804
103319,13806.3
103328,13809.6
103337,13813.7
103345,13818.7
103353,13824.4
103360,13830.9
103366,13838.1
103372,13845.8
103377,13854.1
103381,13862.8
103384,13871.9
103387,13881.3
103388,13890.9
103389,13900.5
103389,14156.4
103388,14166.1
103387,14175.6
103384,14185
103381,14194.1
103377,14202.8
103372,14211.1
103366,14218.9
103360,14226
103353,14232.5
103345,14238.2
103337,14243.2
103328,14247.3
103319,14250.6
103309,14252.9
103300,14254.4
103290,14254.8
102936,14254.8
102926,14254.4
102917,14252.9
102907,14250.6
102898,14247.3
102889,14243.2
102881,14238.2
102873,14232.5
102866,14226
102860,14218.9
102854,14211.1
102849,14202.8
102845,14194.1
102842,14185
102839,14175.6
102838,14166.1
102837,14156.4
102837,13900.5
102838,13890.9
102839,13881.3
102842,13871.9
102845,13862.8
102849,13854.1
102854,13845.8
102860,13838.1
102866,13830.9
102873,13824.4
102881,13818.7
102889,13813.7
102898,13809.6
102907,13806.3
102917,13804
102926,13802.6
102936,13802.1
103290,13802.1
Z" /> 
</g>
<g >
</g>
<g style="fill:#FFFFFF; fill-opacity:1.0; 
stroke:#FFFFFF; stroke-width:0; stroke-opacity:1; 
stroke-linecap:round; stroke-linejoin:round;">
<path style="fill:#FFFFFF; fill-opacity:1.0; 
stroke:#FFFFFF; stroke-width:0; stroke-opacity:1; 
stroke-linecap:round; stroke-linejoin:round;fill-rule:evenodd;"
d="M 104050,14609.6
104059,14611.1
104069,14613.4
104078,14616.7
104087,14620.8
104095,14625.8
104103,14631.5
104110,14638
104116,14645.1
104122,14652.9
104127,14661.2
104131,14669.9
104134,14679
104137,14688.4
104138,14697.9
104139,14707.6
104139,14963.5
104138,14973.1
104137,14982.7
104134,14992.1
104131,15001.2
104127,15009.9
104122,15018.2
104116,15025.9
104110,15033.1
104103,15039.6
104095,15045.3
104087,15050.3
104078,15054.4
104069,15057.7
104059,15060
104050,15061.4
104040,15061.9
103686,15061.9
103676,15061.4
103667,15060
103657,15057.7
103648,15054.4
103639,15050.3
103631,15045.3
103623,15039.6
103616,15033.1
103610,15025.9
103604,15018.2
103599,15009.9
103595,15001.2
103592,14992.1
103589,14982.7
103588,14973.1
103587,14963.5
103587,14707.6
103588,14697.9
103589,14688.4
103592,14679
103595,14669.9
103599,14661.2
103604,14652.9
103610,14645.1
103616,14638
103623,14631.5
103631,14625.8
103639,14620.8
103648,14616.7
103657,14613.4
103667,14611.1
103676,14609.6
103686,14609.2
104040,14609.2
Z" /> 
<path style="fill:#FFFFFF; fill-opacity:1.0; 
stroke:#FFFFFF; stroke-width:0; stroke-opacity:1; 
stroke-linecap:round; stroke-linejoin:round;fill-rule:evenodd;"
d="M 104050,13802.6
104059,13804
104069,13806.3
104078,13809.6
104087,13813.7
104095,13818.7
104103,13824.4
104110,13830.9
104116,13838.1
104122,13845.8
104127,13854.1
104131,13862.8
104134,13871.9
104137,13881.3
104138,13890.9
104139,13900.5
104139,14156.4
104138,14166.1
104137,14175.6
104134,14185
104131,14194.1
104127,14202.8
104122,14211.1
104116,14218.9
104110,14226
104103,14232.5
104095,14238.2
104087,14243.2
104078,14247.3
104069,14250.6
104059,14252.9
104050,14254.4
104040,14254.8
103686,14254.8
103676,14254.4
103667,14252.9
103657,14250.6
103648,14247.3
103639,14243.2
103631,14238.2
103623,14232.5
103616,14226
103610,14218.9
103604,14211.1
103599,14202.8
103595,14194.1
103592,14185
103589,14175.6
103588,14166.1
103587,14156.4
103587,13900.5
103588,13890.9
103589,13881.3
103592,13871.9
103595,13862.8
103599,13854.1
103604,13845.8
103610,13838.1
103616,13830.9
103623,13824.4
103631,13818.7
103639,13813.7
103648,13809.6
103657,13806.3
103667,13804
103676,13802.6
103686,13802.1
104040,13802.1
Z" /> 
</g>
<g >
</g>
<g style="fill:#FFFFFF; fill-opacity:1.0; 
stroke:#FFFFFF; stroke-width:0; stroke-opacity:1; 
stroke-linecap:round; stroke-linejoin:round;">
<path style="fill:#FFFFFF; fill-opacity:1.0; 
stroke:#FFFFFF; stroke-width:0; stroke-opacity:1; 
stroke-linecap:round; stroke-linejoin:round;fill-rule:evenodd;"
d="M 104822,14609.6
104831,14611.1
104841,14613.4
104850,14616.7
104859,14620.8
104867,14625.8
104875,14631.5
104882,14638
104888,14645.1
104894,14652.9
104899,14661.2
104903,14669.9
104906,14679
104909,14688.4
104910,14697.9
104911,14707.6
104911,14963.5
104910,14973.1
104909,14982.7
104906,14992.1
104903,15001.2
104899,15009.9
104894,15018.2
104888,15025.9
104882,15033.1
104875,15039.6
104867,15045.3
104859,15050.3
104850,15054.4
104841,15057.7
104831,15060
104822,15061.4
104812,15061.9
104458,15061.9
104448,15061.4
104439,15060
104429,15057.7
104420,15054.4
104411,15050.3
104403,15045.3
104395,15039.6
104388,15033.1
104382,15025.9
104376,15018.2
104371,15009.9
104367,15001.2
104364,14992.1
104361,14982.7
104360,14973.1
104359,14963.5
104359,14707.6
104360,14697.9
104361,14688.4
104364,14679
104367,14669.9
104371,14661.2
104376,14652.9
104382,14645.1
104388,14638
104395,14631.5
104403,14625.8
104411,14620.8
104420,14616.7
104429,14613.4
104439,14611.1
104448,14609.6
104458,14609.2
104812,14609.2
Z" /> 
<path style="fill:#FFFFFF; fill-opacity:1.0; 
stroke:#FFFFFF; stroke-width:0; stroke-opacity:1; 
stroke-linecap:round; stroke-linejoin:round;fill-rule:evenodd;"
d="M 104822,13802.6
104831,13804
104841,13806.3
104850,13809.6
104859,13813.7
104867,13818.7
104875,13824.4
104882,13830.9
104888,13838.1
104894,13845.8
104899,13854.1
104903,13862.8
104906,13871.9
104909,13881.3
104910,13890.9
104911,13900.5
104911,14156.4
104910,14166.1
104909,14175.6
104906,14185
104903,14194.1
104899,14202.8
104894,14211.1
104888,14218.9
104882,14226
104875,14232.5
104867,14238.2
104859,14243.2
104850,14247.3
104841,14250.6
104831,14252.9
104822,14254.4
104812,14254.8
104458,14254.8
104448,14254.4
104439,14252.9
104429,14250.6
104420,14247.3
104411,14243.2
104403,14238.2
104395,14232.5
104388,14226
104382,14218.9
104376,14211.1
104371,14202.8
104367,14194.1
104364,14185
104361,14175.6
104360,14166.1
104359,14156.4
104359,13900.5
104360,13890.9
104361,13881.3
104364,13871.9
104367,13862.8
104371,13854.1
104376,13845.8
104382,13838.1
104388,13830.9
104395,13824.4
104403,13818.7
104411,13813.7
104420,13809.6
104429,13806.3
104439,13804
104448,13802.6
104458,13802.1
104812,13802.1
Z" /> 
</g>
<g >
</g>
<g style="fill:#FFFFFF; fill-opacity:1.0; 
stroke:#FFFFFF; stroke-width:0; stroke-opacity:1; 
stroke-linecap:round; stroke-linejoin:round;">
<path style="fill:#FFFFFF; fill-opacity:1.0; 
stroke:#FFFFFF; stroke-width:0; stroke-opacity:1; 
stroke-linecap:round; stroke-linejoin:round;fill-rule:evenodd;"
d="M 99515.7,18195.2
99524.7,18196.6
99533.6,18198.8
99542.3,18201.9
99550.6,18205.8
99558.5,18210.6
99565.8,18216
99572.6,18222.2
99578.8,18229
99584.2,18236.4
99589,18244.2
99592.9,18252.5
99596,18261.2
99598.2,18270.1
99599.6,18279.1
99600,18288.3
99600,18514.7
99599.6,18523.8
99598.2,18532.9
99596,18541.8
99592.9,18550.5
99589,18558.8
99584.2,18566.6
99578.8,18574
99572.6,18580.8
99565.8,18587
99558.5,18592.4
99550.6,18597.1
99542.3,18601.1
99533.6,18604.2
99524.7,18606.4
99515.7,18607.7
99506.5,18608.2
99319.5,18608.2
99310.3,18607.7
99301.3,18606.4
99292.4,18604.2
99283.7,18601.1
99275.4,18597.1
99267.5,18592.4
99260.2,18587
99253.4,18580.8
99247.2,18574
99241.8,18566.6
99237,18558.8
99233.1,18550.5
99230,18541.8
99227.8,18532.9
99226.4,18523.8
99226,18514.7
99226,18288.3
99226.4,18279.1
99227.8,18270.1
99230,18261.2
99233.1,18252.5
99237,18244.2
99241.8,18236.4
99247.2,18229
99253.4,18222.2
99260.2,18216
99267.5,18210.6
99275.4,18205.8
99283.7,18201.9
99292.4,18198.8
99301.3,18196.6
99310.3,18195.2
99319.5,18194.8
99506.5,18194.8
Z" /> 
<path style="fill:#FFFFFF; fill-opacity:1.0; 
stroke:#FFFFFF; stroke-width:0; stroke-opacity:1; 
stroke-linecap:round; stroke-linejoin:round;fill-rule:evenodd;"
d="M 99515.7,17506.3
99524.7,17507.6
99533.6,17509.8
99542.3,17512.9
99550.6,17516.9
99558.5,17521.6
99565.8,17527
99572.6,17533.2
99578.8,17540
99584.2,17547.4
99589,17555.2
99592.9,17563.5
99596,17572.2
99598.2,17581.1
99599.6,17590.2
99600,17599.3
99600,17825.7
99599.6,17834.9
99598.2,17843.9
99596,17852.8
99592.9,17861.5
99589,17869.8
99584.2,17877.6
99578.8,17885
99572.6,17891.8
99565.8,17898
99558.5,17903.4
99550.6,17908.2
99542.3,17912.1
99533.6,17915.2
99524.7,17917.4
99515.7,17918.8
99506.5,17919.2
99319.5,17919.2
99310.3,17918.8
99301.3,17917.4
99292.4,17915.2
99283.7,17912.1
99275.4,17908.2
99267.5,17903.4
99260.2,17898
99253.4,17891.8
99247.2,17885
99241.8,17877.6
99237,17869.8
99233.1,17861.5
99230,17852.8
99227.8,17843.9
99226.4,17834.9
99226,17825.7
99226,17599.3
99226.4,17590.2
99227.8,17581.1
99230,17572.2
99233.1,17563.5
99237,17555.2
99241.8,17547.4
99247.2,17540
99253.4,17533.2
99260.2,17527
99267.5,17521.6
99275.4,17516.9
99283.7,17512.9
99292.4,17509.8
99301.3,17507.6
99310.3,17506.3
99319.5,17505.8
99506.5,17505.8
Z" /> 
</g>
<g >
</g>
<g style="fill:#FFFFFF; fill-opacity:1.0; 
stroke:#FFFFFF; stroke-width:0; stroke-opacity:1; 
stroke-linecap:round; stroke-linejoin:round;">
<path style="fill:#FFFFFF; fill-opacity:1.0; 
stroke:#FFFFFF; stroke-width:0; stroke-opacity:1; 
stroke-linecap:round; stroke-linejoin:round;fill-rule:evenodd;"
d="M 99504.8,15670.4
99513.9,15671.8
99522.8,15674
99531.5,15677.1
99539.8,15681
99547.6,15685.8
99555,15691.2
99561.8,15697.4
99568,15704.2
99573.4,15711.5
99578.1,15719.4
99582.1,15727.7
99585.2,15736.4
99587.4,15745.3
99588.7,15754.3
99589.2,15763.5
99589.2,15950.5
99588.7,15959.7
99587.4,15968.7
99585.2,15977.6
99582.1,15986.3
99578.1,15994.6
99573.4,16002.5
99568,16009.8
99561.8,16016.6
99555,16022.8
99547.6,16028.2
99539.8,16033
99531.5,16036.9
99522.8,16040
99513.9,16042.2
99504.8,16043.6
99495.7,16044
99269.3,16044
99260.1,16043.6
99251.1,16042.2
99242.2,16040
99233.5,16036.9
99225.2,16033
99217.4,16028.2
99210,16022.8
99203.2,16016.6
99197,16009.8
99191.6,16002.5
99186.8,15994.6
99182.9,15986.3
99179.8,15977.6
99177.6,15968.7
99176.2,15959.7
99175.8,15950.5
99175.8,15763.5
99176.2,15754.3
99177.6,15745.3
99179.8,15736.4
99182.9,15727.7
99186.8,15719.4
99191.6,15711.5
99197,15704.2
99203.2,15697.4
99210,15691.2
99217.4,15685.8
99225.2,15681
99233.5,15677.1
99242.2,15674
99251.1,15671.8
99260.1,15670.4
99269.3,15670
99495.7,15670
Z" /> 
<path style="fill:#FFFFFF; fill-opacity:1.0; 
stroke:#FFFFFF; stroke-width:0; stroke-opacity:1; 
stroke-linecap:round; stroke-linejoin:round;fill-rule:evenodd;"
d="M 98815.9,15670.4
98824.9,15671.8
98833.8,15674
98842.5,15677.1
98850.8,15681
98858.6,15685.8
98866,15691.2
98872.8,15697.4
98879,15704.2
98884.4,15711.5
98889.2,15719.4
98893.1,15727.7
98896.2,15736.4
98898.4,15745.3
98899.8,15754.3
98900.2,15763.5
98900.2,15950.5
98899.8,15959.7
98898.4,15968.7
98896.2,15977.6
98893.1,15986.3
98889.2,15994.6
98884.4,16002.5
98879,16009.8
98872.8,16016.6
98866,16022.8
98858.6,16028.2
98850.8,16033
98842.5,16036.9
98833.8,16040
98824.9,16042.2
98815.9,16043.6
98806.7,16044
98580.3,16044
98571.2,16043.6
98562.1,16042.2
98553.2,16040
98544.5,16036.9
98536.2,16033
98528.4,16028.2
98521,16022.8
98514.2,16016.6
98508,16009.8
98502.6,16002.5
98497.9,15994.6
98493.9,15986.3
98490.8,15977.6
98488.6,15968.7
98487.3,15959.7
98486.8,15950.5
98486.8,15763.5
98487.3,15754.3
98488.6,15745.3
98490.8,15736.4
98493.9,15727.7
98497.9,15719.4
98502.6,15711.5
98508,15704.2
98514.2,15697.4
98521,15691.2
98528.4,15685.8
98536.2,15681
98544.5,15677.1
98553.2,15674
98562.1,15671.8
98571.2,15670.4
98580.3,15670
98806.7,15670
Z" /> 
</g>
<g >
</g>
<g >
</g>
<g style="fill:#FFFFFF; fill-opacity:1.0; 
stroke:#FFFFFF; stroke-width:0; stroke-opacity:1; 
stroke-linecap:round; stroke-linejoin:round;">
</g>
<g style="fill:#FFFFFF; fill-opacity:1.0; 
stroke:#FFFFFF; stroke-width:157.48; stroke-opacity:1; 
stroke-linecap:round; stroke-linejoin:round;">
</g>
<g style="fill:#FFFFFF; fill-opacity:0.0; 
stroke:#FFFFFF; stroke-width:157.48; stroke-opacity:1; 
stroke-linecap:round; stroke-linejoin:round;">
<path d="M98714 18401
L98628 18487
" />
<path d="M99413 18401
L98714 18401
" />
<path d="M99874 17995
L100341 17995
" />
<path d="M99413 18401
L99468 18401
" />
<path d="M99468 18401
L99874 17995
" />
<path d="M102566 17680
L103687 17680
" />
<path d="M102251 17366
L102566 17680
" />
<path d="M99868 17366
L99438 16935
" />
<path d="M100341 17366
L99868 17366
" />
<path d="M99438 16935
L99438 16932
" />
<path d="M99382 16876
L99382 15857
" />
<path d="M99438 16932
L99382 16876
" />
<path d="M101662 14747
L101662 14531
" />
<path d="M101662 14531
L101288 14157
" />
<path d="M99382 14412
L99382 15857
" />
<path d="M99638 14157
L99382 14412
" />
<path d="M99014 11308
L99838 12132
" />
<path d="M99838 14132
L99863 14157
" />
<path d="M99838 12132
L99838 14132
" />
<path d="M96563 11308
L99014 11308
" />
<path d="M101288 14157
L99863 14157
" />
<path d="M99863 14157
L99638 14157
" />
<path d="M101662 14747
L101662 14213
" />
<path d="M101662 14213
L101812 14064
" />
<path d="M101812 12283
L101813 12282
" />
<path d="M101812 14064
L101812 12283
" />
<path d="M103687 17680
L104529 17680
" />
<path d="M104529 17680
L105170 17040
" />
<path d="M105170 17040
L106508 17040
" />
<path d="M106707 17239
L106707 18372
" />
<path d="M106508 17040
L106707 17239
" />
<path d="M101132 17366
L101132 17829
" />
<path d="M101132 17366
L102251 17366
" />
<path d="M100341 17366
L101132 17366
" />
<path d="M100966 17995
L100341 17995
" />
<path d="M101132 17829
L100966 17995
" />
<path d="M98628 15922
L98693 15857
" />
<path d="M98628 16676
L98628 15922
" />
<path d="M96764 13557
L96563 13355
" />
<path d="M99434 13557
L96764 13557
" />
<path d="M96563 13355
L96563 15019
" />
<path d="M97401 15857
L98693 15857
" />
<path d="M96563 15019
L97401 15857
" />
<path d="M99444 17680
L99413 17712
" />
<path d="M100341 17680
L99444 17680
" />
<path d="M98758 17712
L98628 17582
" />
<path d="M99413 17712
L98758 17712
" />
<path d="M103687 18625
L104762 18625
" />
<path d="M105448 17939
L105448 17585
" />
<path d="M104762 18625
L105448 17939
" />
<path d="M100341 18310
L101106 18310
" />
<path d="M101421 18625
L103687 18625
" />
<path d="M101106 18310
L101421 18625
" />
<path d="M99949 18310
L99790 18470
" />
<path d="M100341 18310
L99949 18310
" />
<path d="M99790 18470
L99790 18724
" />
<path d="M99790 18724
L99462 19052
" />
<path d="M99462 19052
L98066 19052
" />
<path d="M98066 19052
L97898 18884
" />
<path d="M97898 18884
L97898 17800
" />
<path d="M98116 17582
L98628 17582
" />
<path d="M97898 17800
L98116 17582
" />
<path d="M103116 19511
L103116 20122
" />
<path d="M104542 21548
L106321 21548
" />
<path d="M103116 20122
L104542 21548
" />
<path d="M105448 20735
L104471 20735
" />
<path d="M103687 19951
L103687 18940
" />
<path d="M104471 20735
L103687 19951
" />
<path d="M102585 17366
L103687 17366
" />
<path d="M101856 16637
L102585 17366
" />
<path d="M101856 16165
L101856 16637
" />
<path d="M103687 17366
L104345 17366
" />
<path d="M104345 17366
L104992 16720
" />
<path d="M106522 16720
L107588 17785
" />
<path d="M104992 16720
L106522 16720
" />
<path d="M107588 17785
L107588 19802
" />
<path d="M107442 19947
L106707 19947
" />
<path d="M107588 19802
L107442 19947
" />
<path d="M105448 19690
L105448 19160
" />
<path d="M106346 20588
L105448 19690
" />
<path d="M102801 20141
L104739 22080
" />
<path d="M106866 20588
L106346 20588
" />
<path d="M102801 19511
L102801 20141
" />
<path d="M104739 22080
L107206 22080
" />
<path d="M107206 22080
L107422 21864
" />
<path d="M107422 21864
L107422 21144
" />
<path d="M107422 21144
L106866 20588
" />
<path d="M101278 13557
L101288 13566
" />
<path d="M100241 13557
L101278 13557
" />
<path d="M101288 13566
L101288 12958
" />
<path d="M101288 12958
L101034 12704
" />
<path d="M101034 12704
L101034 11044
" />
<path d="M101296 10782
L101813 10782
" />
<path d="M101034 11044
L101296 10782
" />
<path d="M100913 14747
L100913 15215
" />
<path d="M100913 15215
L101102 15404
" />
<path d="M101102 15404
L102046 15404
" />
<path d="M102171 15529
L102171 16165
" />
<path d="M102046 15404
L102171 15529
" />
<path d="M103687 16736
L103687 16407
" />
<path d="M104635 15460
L104635 14835
" />
<path d="M103687 16407
L104635 15460
" />
<path d="M104635 14028
L104635 13535
" />
<path d="M104635 13535
L104926 13243
" />
<path d="M104926 13243
L104926 11432
" />
<path d="M104776 11282
L103762 11282
" />
<path d="M104926 11432
L104776 11282
" />
<path d="M103116 16165
L103116 15828
" />
<path d="M103116 15828
L103463 15482
" />
<path d="M103463 15482
L103663 15482
" />
<path d="M103863 15282
L103863 14835
" />
<path d="M103663 15482
L103863 15282
" />
<path d="M103863 14028
L103863 13725
" />
<path d="M103863 13725
L104690 12897
" />
<path d="M104690 12897
L104690 11880
" />
<path d="M104592 11782
L103762 11782
" />
<path d="M104690 11880
L104592 11782
" />
<path d="M102801 16165
L102801 15668
" />
<path d="M103113 15357
L103113 14835
" />
<path d="M102801 15668
L103113 15357
" />
<path d="M103113 14028
L103113 13717
" />
<path d="M103762 13067
L103762 12282
" />
<path d="M103113 13717
L103762 13067
" />
<path d="M102486 16165
L102486 15453
" />
<path d="M102363 15329
L102363 14835
" />
<path d="M102486 15453
L102363 15329
" />
<path d="M102363 14028
L102363 12697
" />
<path d="M102363 12697
L102512 12548
" />
<path d="M102512 12548
L102512 11472
" />
<path d="M102322 11282
L101813 11282
" />
<path d="M102512 11472
L102322 11282
" />
<path d="M104160 17051
L105163 16048
" />
<path d="M103687 17051
L104160 17051
" />
<path d="M105163 16048
L105163 10963
" />
<path d="M104982 10782
L103762 10782
" />
<path d="M105163 10963
L104982 10782
" />
</g>
<g >
</g>
<g style="fill:#FFFFFF; fill-opacity:0.0; 
stroke:#FFFFFF; stroke-width:157.48; stroke-opacity:1; 
stroke-linecap:round; stroke-linejoin:round;">
</g>
<g style="fill:#FFFFFF; fill-opacity:1.0; 
stroke:#FFFFFF; stroke-width:100; stroke-opacity:1; 
stroke-linecap:round; stroke-linejoin:round;">
<path style="fill:#FFFFFF; fill-opacity:1.0; 
stroke:#FFFFFF; stroke-width:100; stroke-opacity:1; 
stroke-linecap:round; stroke-linejoin:round;fill-rule:evenodd;"
d="M 98678.2,18437.5
98686,18437.5
98686,18537.5
98678.2,18537.5
98678.2,18545.4
98578.2,18545.4
98578.2,18537.5
98570.3,18537.5
98570.3,18437.5
98578.2,18437.5
98578.2,18429.6
98678.2,18429.6
Z" /> 
<path style="fill:#FFFFFF; fill-opacity:1.0; 
stroke:#FFFFFF; stroke-width:100; stroke-opacity:1; 
stroke-linecap:round; stroke-linejoin:round;fill-rule:evenodd;"
d="M 99463,18351.5
99470.9,18351.5
99470.9,18389.9
99466,18405.9
99460.8,18459.4
99363,18459.4
99363,18451.5
99355.1,18451.5
99355.1,18351.5
99363,18351.5
99363,18343.6
99463,18343.6
Z" /> 
<path style="fill:#FFFFFF; fill-opacity:1.0; 
stroke:#FFFFFF; stroke-width:100; stroke-opacity:1; 
stroke-linecap:round; stroke-linejoin:round;fill-rule:evenodd;"
d="M 104803,17408.3
104803,17762.7
104808,17811.7
104822,17858.8
104846,17902.2
104877,17940.3
104915,17971.5
104939,17984.3
104626,18297.1
104254,18297.1
104254,18202.6
104249,18153.6
104249,18153.4
104249,18153.2
104254,18104.2
104254,17887.7
104249,17838.7
104249,17838.2
104253,17793.5
104216,17757.2
104212,17748.1
104197,17731
104253,17731
104253,17694.8
104330,17694.8
104346,17696.3
104362,17694.8
104362,17694.8
104410,17690
104472,17671.2
104530,17640.7
104580,17599.6
104590,17587
104807,17370
Z" /> 
<path style="fill:#FFFFFF; fill-opacity:1.0; 
stroke:#FFFFFF; stroke-width:100; stroke-opacity:1; 
stroke-linecap:round; stroke-linejoin:round;fill-rule:evenodd;"
d="M 101385,16726.6
101434,16731.4
101542,16731.4
101552,16764.1
101582,16821.2
101582,16821.2
101623,16871.2
101636,16881.5
102341,17587.1
102352,17599.6
102402,17640.7
102459,17671.2
102521,17690
102585,17696.3
102601,17694.8
103123,17694.8
103123,17731
103178,17731
103164,17748.1
103159,17757.2
103123,17793.5
103126,17838.2
103126,17838.7
103122,17887.7
103122,18104.2
103126,18153.2
103126,18153.4
103126,18153.6
103122,18202.6
103122,18297.1
101558,18297.1
101351,18089.9
101340,18077.3
101290,18036.2
101233,18005.7
101171,17986.9
101123,17982.2
101123,17982.2
101107,17980.6
101091,17982.2
100906,17982.2
100906,17945.9
100851,17945.9
100865,17928.8
100870,17919.7
100906,17883.4
100902,17838.7
100903,17838.3
100907,17789.2
100907,17572.7
100903,17523.7
100902,17523.3
100906,17478.5
100870,17442.3
100865,17433.1
100834,17395.1
100798,17366
100834,17337
100865,17298.9
100870,17289.8
100906,17253.5
100902,17208.8
100903,17208.3
100907,17159.3
100907,16942.8
100903,16893.8
100903,16893.6
100903,16893.4
100907,16844.4
100907,16731.4
101020,16731.4
101069,16726.6
101070,16726.5
101070,16726.6
101119,16731.4
101335,16731.4
101384,16726.6
101385,16726.5
Z" /> 
<path style="fill:#FFFFFF; fill-opacity:1.0; 
stroke:#FFFFFF; stroke-width:100; stroke-opacity:1; 
stroke-linecap:round; stroke-linejoin:round;fill-rule:evenodd;"
d="M 99015.8,13928.4
99059.3,13981.4
99112.3,14024.9
99172.7,14057.2
99238.3,14077.1
99306.5,14083.8
99562.4,14083.8
99630.6,14077.1
99696.2,14057.2
99756.7,14024.9
99809.6,13981.4
99838,13946.8
99866.4,13981.4
99919.3,14024.9
99979.8,14057.2
100045,14077.1
100114,14083.8
100369,14083.8
100438,14077.1
100503,14057.2
100564,14024.9
100617,13981.4
100660,13928.4
100683,13885.7
100879,13885.7
100879,13940.5
100884,13989.5
100898,14036.6
100922,14080
100953,14118.1
100958,14122.3
100757,14122.3
100707,14127.2
100660,14141.4
100617,14164.7
100579,14195.9
100548,14234
100524,14277.4
100510,14324.5
100505,14373.5
100505,15121.6
100510,15170.6
100524,15217.7
100548,15261.1
100579,15299.2
100601,15317.6
100609,15342.4
100639,15399.5
100639,15399.5
100680,15449.6
100693,15459.9
100832,15599.1
100804,15599.1
100755,15603.9
100708,15618.2
100664,15641.4
100626,15672.6
100595,15710.7
100572,15754.1
100557,15801.3
100553,15850.3
100553,16376.6
100026,16376.6
99977.3,16381.4
99930.1,16395.7
99886.7,16419
99848.6,16450.2
99817.4,16488.3
99794.2,16531.7
99779.9,16578.8
99775.1,16627.8
99775.1,16844.4
99779.9,16893.4
99779.9,16893.6
99779.9,16893.8
99775.1,16942.8
99775.1,17159.3
99779.9,17208.3
99780,17208.8
99776.3,17253.5
99812.5,17289.8
99817.4,17298.9
99831.5,17316
99776.3,17316
99776.3,17352.2
99746.2,17352.2
99698,17312.7
99638.4,17280.8
99573.8,17261.2
99506.5,17254.6
99319.5,17254.6
99270.4,17259.4
99268.2,17237.7
99253.9,17190.6
99230.7,17147.2
99216,17129.2
99230.7,17111.3
99253.9,17067.9
99268.2,17020.8
99273.1,16971.8
99273.1,16381.2
99268.2,16332.2
99256.7,16294.2
99270,16294
99332.5,16231.5
99332.5,15907
99432.5,15907
99432.5,16231.5
99495,16294
99589.2,16295.2
99638.2,16290.4
99685.3,16276.1
99728.7,16252.9
99766.8,16221.6
99798.1,16183.6
99821.3,16140.1
99835.6,16093
99840.4,16044
99839.2,15969.5
99776.7,15907
99432.5,15907
99332.5,15907
99324.6,15907
99324.6,15807
99332.5,15807
99332.5,15482.5
99432.5,15482.5
99432.5,15807
99776.7,15807
99839.2,15744.5
99840.4,15670
99835.6,15621
99821.3,15573.9
99798.1,15530.4
99766.8,15492.4
99728.7,15461.1
99685.3,15437.9
99638.2,15423.6
99589.2,15418.8
99495,15420
99432.5,15482.5
99332.5,15482.5
99270,15420
99175.8,15418.8
99126.8,15423.6
99079.7,15437.9
99036.2,15461.1
99007.6,15484.6
98998.2,15476.9
98938.6,15445
98874,15425.4
98806.7,15418.8
98580.3,15418.8
98513.1,15425.4
98448.4,15445
98388.8,15476.9
98336.6,15519.7
98329.6,15528.3
97537.2,15528.3
96891.7,14882.8
96891.7,14236.8
97340.6,14236.8
97408.8,14230
97474.4,14210.1
97534.8,14177.8
97587.8,14134.3
97631.3,14081.4
97663.6,14020.9
97683.5,13955.3
97690.2,13887.1
97690.2,13885.7
98993,13885.7
Z" /> 
<path style="fill:#FFFFFF; fill-opacity:1.0; 
stroke:#FFFFFF; stroke-width:100; stroke-opacity:1; 
stroke-linecap:round; stroke-linejoin:round;fill-rule:evenodd;"
d="M 105413,17157.1
105054,17157.1
105016,17160.9
105128,17048.7
105413,17048.7
Z" /> 
<path style="fill:#FFFFFF; fill-opacity:1.0; 
stroke:#FFFFFF; stroke-width:100; stroke-opacity:1; 
stroke-linecap:round; stroke-linejoin:round;fill-rule:evenodd;"
d="M 102034,12999.1
102034,13587
101992,13609.8
101939,13653.3
101895,13706.3
101863,13766.7
101843,13832.3
101836,13900.5
101836,14124
101819,14122.3
101775,14123.5
101712,14186
101712,14697.6
101720,14697.6
101720,14797.6
101712,14797.6
101712,14805.4
101612,14805.4
101612,14797.6
101604,14797.6
101604,14697.6
101612,14697.6
101612,14186
101579,14152.7
101585,14149.3
101623,14118.1
101654,14080
101678,14036.6
101692,13989.5
101697,13940.5
101697,13192.4
101692,13143.4
101678,13096.3
101654,13052.9
101623,13014.8
101617,13009.6
101617,12991.2
Z" /> 
</g>
</g> 
</svg>
