<?xml version="1.0" standalone="no"?>
 <!DOCTYPE svg PUBLIC "-//W3C//DTD SVG 1.1//EN" 
 "http://www.w3.org/Graphics/SVG/1.1/DTD/svg11.dtd"> 
<svg
  xmlns:svg="http://www.w3.org/2000/svg"
  xmlns="http://www.w3.org/2000/svg"
  xmlns:xlink="http://www.w3.org/1999/xlink"
  version="1.1"
  width="29.700220cm" height="21.000720cm" viewBox="0 0 116930 82680">
<title>SVG Picture created as usilok-F_Cu.svg date 2020/06/22 22:25:56 </title>
  <desc>Picture generated by PCBNEW </desc>
<g style="fill:#000000; fill-opacity:1;stroke:#000000; stroke-opacity:1;
stroke-linecap:round; stroke-linejoin:round;"
 transform="translate(0 0) scale(1 1)">
</g>
<g style="fill:#000000; fill-opacity:0.0; 
stroke:#000000; stroke-width:-0.000393701; stroke-opacity:1; 
stroke-linecap:round; stroke-linejoin:round;">
</g>
<g style="fill:#000000; fill-opacity:1.0; 
stroke:#000000; stroke-width:7.87402; stroke-opacity:1; 
stroke-linecap:round; stroke-linejoin:round;">
<rect x="96581.3" y="10881.3" width="13837.2" height="10638.2" rx="0" />
</g>
<g style="fill:#FFFFFF; fill-opacity:1.0; 
stroke:#FFFFFF; stroke-width:7.87402; stroke-opacity:1; 
stroke-linecap:round; stroke-linejoin:round;">
<g >
</g>
<g style="fill:#FFFFFF; fill-opacity:1.0; 
stroke:#FFFFFF; stroke-width:0; stroke-opacity:1; 
stroke-linecap:round; stroke-linejoin:round;">
<path style="fill:#FFFFFF; fill-opacity:1.0; 
stroke:#FFFFFF; stroke-width:0; stroke-opacity:1; 
stroke-linecap:round; stroke-linejoin:round;fill-rule:evenodd;"
d="M 104579,16240
104585,16240.9
104591,16242.3
104596,16244.3
104601,16246.7
104606,16249.7
104611,16253.2
104615,16257.1
104619,16261.4
104623,16266
104626,16271
104628,16276.2
104630,16281.7
104632,16287.3
104632,16293
104633,16298.8
104633,16416.9
104632,16422.7
104632,16428.5
104630,16434.1
104628,16439.5
104626,16444.8
104623,16449.7
104619,16454.4
104615,16458.7
104611,16462.6
104606,16466
104601,16469
104596,16471.5
104591,16473.4
104585,16474.8
104579,16475.7
104574,16476
104042,16476
104036,16475.7
104031,16474.8
104025,16473.4
104020,16471.5
104014,16469
104009,16466
104005,16462.6
104000,16458.7
103996,16454.4
103993,16449.7
103990,16444.8
103988,16439.5
103986,16434.1
103984,16428.5
103983,16422.7
103983,16416.9
103983,16298.8
103983,16293
103984,16287.3
103986,16281.7
103988,16276.2
103990,16271
103993,16266
103996,16261.4
104000,16257.1
104005,16253.2
104009,16249.7
104014,16246.7
104020,16244.3
104025,16242.3
104031,16240.9
104036,16240
104042,16239.8
104574,16239.8
Z" /> 
<path style="fill:#FFFFFF; fill-opacity:1.0; 
stroke:#FFFFFF; stroke-width:0; stroke-opacity:1; 
stroke-linecap:round; stroke-linejoin:round;fill-rule:evenodd;"
d="M 104579,16740
104585,16740.9
104591,16742.3
104596,16744.3
104601,16746.7
104606,16749.7
104611,16753.2
104615,16757.1
104619,16761.4
104623,16766
104626,16771
104628,16776.2
104630,16781.7
104632,16787.3
104632,16793
104633,16798.8
104633,16916.9
104632,16922.7
104632,16928.5
104630,16934.1
104628,16939.5
104626,16944.8
104623,16949.7
104619,16954.4
104615,16958.7
104611,16962.6
104606,16966
104601,16969
104596,16971.5
104591,16973.4
104585,16974.8
104579,16975.7
104574,16976
104042,16976
104036,16975.7
104031,16974.8
104025,16973.4
104020,16971.5
104014,16969
104009,16966
104005,16962.6
104000,16958.7
103996,16954.4
103993,16949.7
103990,16944.8
103988,16939.5
103986,16934.1
103984,16928.5
103983,16922.7
103983,16916.9
103983,16798.8
103983,16793
103984,16787.3
103986,16781.7
103988,16776.2
103990,16771
103993,16766
103996,16761.4
104000,16757.1
104005,16753.2
104009,16749.7
104014,16746.7
104020,16744.3
104025,16742.3
104031,16740.9
104036,16740
104042,16739.8
104574,16739.8
Z" /> 
<path style="fill:#FFFFFF; fill-opacity:1.0; 
stroke:#FFFFFF; stroke-width:0; stroke-opacity:1; 
stroke-linecap:round; stroke-linejoin:round;fill-rule:evenodd;"
d="M 104579,17240
104585,17240.9
104591,17242.3
104596,17244.3
104601,17246.7
104606,17249.7
104611,17253.2
104615,17257.1
104619,17261.4
104623,17266
104626,17271
104628,17276.2
104630,17281.7
104632,17287.3
104632,17293
104633,17298.8
104633,17416.9
104632,17422.7
104632,17428.5
104630,17434.1
104628,17439.5
104626,17444.8
104623,17449.7
104619,17454.4
104615,17458.7
104611,17462.6
104606,17466
104601,17469
104596,17471.5
104591,17473.4
104585,17474.8
104579,17475.7
104574,17476
104042,17476
104036,17475.7
104031,17474.8
104025,17473.4
104020,17471.5
104014,17469
104009,17466
104005,17462.6
104000,17458.7
103996,17454.4
103993,17449.7
103990,17444.8
103988,17439.5
103986,17434.1
103984,17428.5
103983,17422.7
103983,17416.9
103983,17298.8
103983,17293
103984,17287.3
103986,17281.7
103988,17276.2
103990,17271
103993,17266
103996,17261.4
104000,17257.1
104005,17253.2
104009,17249.7
104014,17246.7
104020,17244.3
104025,17242.3
104031,17240.9
104036,17240
104042,17239.8
104574,17239.8
Z" /> 
<path style="fill:#FFFFFF; fill-opacity:1.0; 
stroke:#FFFFFF; stroke-width:0; stroke-opacity:1; 
stroke-linecap:round; stroke-linejoin:round;fill-rule:evenodd;"
d="M 104579,17740
104585,17740.9
104591,17742.3
104596,17744.3
104601,17746.7
104606,17749.7
104611,17753.2
104615,17757.1
104619,17761.4
104623,17766
104626,17771
104628,17776.2
104630,17781.7
104632,17787.3
104632,17793
104633,17798.8
104633,17916.9
104632,17922.7
104632,17928.5
104630,17934.1
104628,17939.5
104626,17944.8
104623,17949.7
104619,17954.4
104615,17958.7
104611,17962.6
104606,17966
104601,17969
104596,17971.5
104591,17973.4
104585,17974.8
104579,17975.7
104574,17976
104042,17976
104036,17975.7
104031,17974.8
104025,17973.4
104020,17971.5
104014,17969
104009,17966
104005,17962.6
104000,17958.7
103996,17954.4
103993,17949.7
103990,17944.8
103988,17939.5
103986,17934.1
103984,17928.5
103983,17922.7
103983,17916.9
103983,17798.8
103983,17793
103984,17787.3
103986,17781.7
103988,17776.2
103990,17771
103993,17766
103996,17761.4
104000,17757.1
104005,17753.2
104009,17749.7
104014,17746.7
104020,17744.3
104025,17742.3
104031,17740.9
104036,17740
104042,17739.8
104574,17739.8
Z" /> 
<path style="fill:#FFFFFF; fill-opacity:1.0; 
stroke:#FFFFFF; stroke-width:0; stroke-opacity:1; 
stroke-linecap:round; stroke-linejoin:round;fill-rule:evenodd;"
d="M 102512,17740
102518,17740.9
102524,17742.3
102529,17744.3
102535,17746.7
102540,17749.7
102544,17753.2
102548,17757.1
102552,17761.4
102556,17766
102559,17771
102561,17776.2
102563,17781.7
102565,17787.3
102565,17793
102566,17798.8
102566,17916.9
102565,17922.7
102565,17928.5
102563,17934.1
102561,17939.5
102559,17944.8
102556,17949.7
102552,17954.4
102548,17958.7
102544,17962.6
102540,17966
102535,17969
102529,17971.5
102524,17973.4
102518,17974.8
102512,17975.7
102507,17976
101975,17976
101969,17975.7
101964,17974.8
101958,17973.4
101953,17971.5
101947,17969
101942,17966
101938,17962.6
101933,17958.7
101930,17954.4
101926,17949.7
101923,17944.8
101921,17939.5
101919,17934.1
101917,17928.5
101916,17922.7
101916,17916.9
101916,17798.8
101916,17793
101917,17787.3
101919,17781.7
101921,17776.2
101923,17771
101926,17766
101930,17761.4
101933,17757.1
101938,17753.2
101942,17749.7
101947,17746.7
101953,17744.3
101958,17742.3
101964,17740.9
101969,17740
101975,17739.8
102507,17739.8
Z" /> 
<path style="fill:#FFFFFF; fill-opacity:1.0; 
stroke:#FFFFFF; stroke-width:0; stroke-opacity:1; 
stroke-linecap:round; stroke-linejoin:round;fill-rule:evenodd;"
d="M 102512,17240
102518,17240.9
102524,17242.3
102529,17244.3
102535,17246.7
102540,17249.7
102544,17253.2
102548,17257.1
102552,17261.4
102556,17266
102559,17271
102561,17276.2
102563,17281.7
102565,17287.3
102565,17293
102566,17298.8
102566,17416.9
102565,17422.7
102565,17428.5
102563,17434.1
102561,17439.5
102559,17444.8
102556,17449.7
102552,17454.4
102548,17458.7
102544,17462.6
102540,17466
102535,17469
102529,17471.5
102524,17473.4
102518,17474.8
102512,17475.7
102507,17476
101975,17476
101969,17475.7
101964,17474.8
101958,17473.4
101953,17471.5
101947,17469
101942,17466
101938,17462.6
101933,17458.7
101930,17454.4
101926,17449.7
101923,17444.8
101921,17439.5
101919,17434.1
101917,17428.5
101916,17422.7
101916,17416.9
101916,17298.8
101916,17293
101917,17287.3
101919,17281.7
101921,17276.2
101923,17271
101926,17266
101930,17261.4
101933,17257.1
101938,17253.2
101942,17249.7
101947,17246.7
101953,17244.3
101958,17242.3
101964,17240.9
101969,17240
101975,17239.8
102507,17239.8
Z" /> 
<path style="fill:#FFFFFF; fill-opacity:1.0; 
stroke:#FFFFFF; stroke-width:0; stroke-opacity:1; 
stroke-linecap:round; stroke-linejoin:round;fill-rule:evenodd;"
d="M 102512,16740
102518,16740.9
102524,16742.3
102529,16744.3
102535,16746.7
102540,16749.7
102544,16753.2
102548,16757.1
102552,16761.4
102556,16766
102559,16771
102561,16776.2
102563,16781.7
102565,16787.3
102565,16793
102566,16798.8
102566,16916.9
102565,16922.7
102565,16928.5
102563,16934.1
102561,16939.5
102559,16944.8
102556,16949.7
102552,16954.4
102548,16958.7
102544,16962.6
102540,16966
102535,16969
102529,16971.5
102524,16973.4
102518,16974.8
102512,16975.7
102507,16976
101975,16976
101969,16975.7
101964,16974.8
101958,16973.4
101953,16971.5
101947,16969
101942,16966
101938,16962.6
101933,16958.7
101930,16954.4
101926,16949.7
101923,16944.8
101921,16939.5
101919,16934.1
101917,16928.5
101916,16922.7
101916,16916.9
101916,16798.8
101916,16793
101917,16787.3
101919,16781.7
101921,16776.2
101923,16771
101926,16766
101930,16761.4
101933,16757.1
101938,16753.2
101942,16749.7
101947,16746.7
101953,16744.3
101958,16742.3
101964,16740.9
101969,16740
101975,16739.8
102507,16739.8
Z" /> 
<path style="fill:#FFFFFF; fill-opacity:1.0; 
stroke:#FFFFFF; stroke-width:0; stroke-opacity:1; 
stroke-linecap:round; stroke-linejoin:round;fill-rule:evenodd;"
d="M 102512,16240
102518,16240.9
102524,16242.3
102529,16244.3
102535,16246.7
102540,16249.7
102544,16253.2
102548,16257.1
102552,16261.4
102556,16266
102559,16271
102561,16276.2
102563,16281.7
102565,16287.3
102565,16293
102566,16298.8
102566,16416.9
102565,16422.7
102565,16428.5
102563,16434.1
102561,16439.5
102559,16444.8
102556,16449.7
102552,16454.4
102548,16458.7
102544,16462.6
102540,16466
102535,16469
102529,16471.5
102524,16473.4
102518,16474.8
102512,16475.7
102507,16476
101975,16476
101969,16475.7
101964,16474.8
101958,16473.4
101953,16471.5
101947,16469
101942,16466
101938,16462.6
101933,16458.7
101930,16454.4
101926,16449.7
101923,16444.8
101921,16439.5
101919,16434.1
101917,16428.5
101916,16422.7
101916,16416.9
101916,16298.8
101916,16293
101917,16287.3
101919,16281.7
101921,16276.2
101923,16271
101926,16266
101930,16261.4
101933,16257.1
101938,16253.2
101942,16249.7
101947,16246.7
101953,16244.3
101958,16242.3
101964,16240.9
101969,16240
101975,16239.8
102507,16239.8
Z" /> 
</g>
<g >
</g>
<g style="fill:#FFFFFF; fill-opacity:1.0; 
stroke:#FFFFFF; stroke-width:0; stroke-opacity:1; 
stroke-linecap:round; stroke-linejoin:round;">
<path style="fill:#FFFFFF; fill-opacity:1.0; 
stroke:#FFFFFF; stroke-width:0; stroke-opacity:1; 
stroke-linecap:round; stroke-linejoin:round;fill-rule:evenodd;"
d="M 104484,18274.9
104494,18276.3
104503,18278.6
104512,18281.9
104521,18286
104529,18291
104537,18296.8
104544,18303.2
104550,18310.4
104556,18318.2
104561,18326.4
104565,18335.2
104569,18344.3
104571,18353.6
104572,18363.2
104573,18372.8
104573,18727.2
104572,18736.8
104571,18746.4
104569,18755.7
104565,18764.8
104561,18773.6
104556,18781.8
104550,18789.6
104544,18796.8
104537,18803.2
104529,18809
104521,18814
104512,18818.1
104503,18821.4
104494,18823.7
104484,18825.1
104474,18825.6
104219,18825.6
104209,18825.1
104199,18823.7
104190,18821.4
104181,18818.1
104172,18814
104164,18809
104156,18803.2
104149,18796.8
104142,18789.6
104137,18781.8
104132,18773.6
104128,18764.8
104124,18755.7
104122,18746.4
104121,18736.8
104120,18727.2
104120,18372.8
104121,18363.2
104122,18353.6
104124,18344.3
104128,18335.2
104132,18326.4
104137,18318.2
104142,18310.4
104149,18303.2
104156,18296.8
104164,18291
104172,18286
104181,18281.9
104190,18278.6
104199,18276.3
104209,18274.9
104219,18274.4
104474,18274.4
Z" /> 
<path style="fill:#FFFFFF; fill-opacity:1.0; 
stroke:#FFFFFF; stroke-width:0; stroke-opacity:1; 
stroke-linecap:round; stroke-linejoin:round;fill-rule:evenodd;"
d="M 105291,18274.9
105301,18276.3
105310,18278.6
105319,18281.9
105328,18286
105336,18291
105344,18296.8
105351,18303.2
105358,18310.4
105363,18318.2
105368,18326.4
105372,18335.2
105376,18344.3
105378,18353.6
105379,18363.2
105380,18372.8
105380,18727.2
105379,18736.8
105378,18746.4
105376,18755.7
105372,18764.8
105368,18773.6
105363,18781.8
105358,18789.6
105351,18796.8
105344,18803.2
105336,18809
105328,18814
105319,18818.1
105310,18821.4
105301,18823.7
105291,18825.1
105281,18825.6
105026,18825.6
105016,18825.1
105006,18823.7
104997,18821.4
104988,18818.1
104979,18814
104971,18809
104963,18803.2
104956,18796.8
104950,18789.6
104944,18781.8
104939,18773.6
104935,18764.8
104931,18755.7
104929,18746.4
104928,18736.8
104927,18727.2
104927,18372.8
104928,18363.2
104929,18353.6
104931,18344.3
104935,18335.2
104939,18326.4
104944,18318.2
104950,18310.4
104956,18303.2
104963,18296.8
104971,18291
104979,18286
104988,18281.9
104997,18278.6
105006,18276.3
105016,18274.9
105026,18274.4
105281,18274.4
Z" /> 
</g>
<g >
</g>
<g style="fill:#FFFFFF; fill-opacity:1.0; 
stroke:#FFFFFF; stroke-width:0; stroke-opacity:1; 
stroke-linecap:round; stroke-linejoin:round;">
<path style="fill:#FFFFFF; fill-opacity:1.0; 
stroke:#FFFFFF; stroke-width:0; stroke-opacity:1; 
stroke-linecap:round; stroke-linejoin:round;fill-rule:evenodd;"
d="M 103034,18274.9
103044,18276.3
103053,18278.6
103062,18281.9
103071,18286
103079,18291
103087,18296.8
103094,18303.2
103100,18310.4
103106,18318.2
103111,18326.4
103115,18335.2
103119,18344.3
103121,18353.6
103122,18363.2
103123,18372.8
103123,18727.2
103122,18736.8
103121,18746.4
103119,18755.7
103115,18764.8
103111,18773.6
103106,18781.8
103100,18789.6
103094,18796.8
103087,18803.2
103079,18809
103071,18814
103062,18818.1
103053,18821.4
103044,18823.7
103034,18825.1
103024,18825.6
102769,18825.6
102759,18825.1
102749,18823.7
102740,18821.4
102731,18818.1
102722,18814
102714,18809
102706,18803.2
102699,18796.8
102692,18789.6
102687,18781.8
102682,18773.6
102678,18764.8
102674,18755.7
102672,18746.4
102671,18736.8
102670,18727.2
102670,18372.8
102671,18363.2
102672,18353.6
102674,18344.3
102678,18335.2
102682,18326.4
102687,18318.2
102692,18310.4
102699,18303.2
102706,18296.8
102714,18291
102722,18286
102731,18281.9
102740,18278.6
102749,18276.3
102759,18274.9
102769,18274.4
103024,18274.4
Z" /> 
<path style="fill:#FFFFFF; fill-opacity:1.0; 
stroke:#FFFFFF; stroke-width:0; stroke-opacity:1; 
stroke-linecap:round; stroke-linejoin:round;fill-rule:evenodd;"
d="M 103841,18274.9
103851,18276.3
103860,18278.6
103869,18281.9
103878,18286
103886,18291
103894,18296.8
103901,18303.2
103908,18310.4
103913,18318.2
103918,18326.4
103922,18335.2
103926,18344.3
103928,18353.6
103929,18363.2
103930,18372.8
103930,18727.2
103929,18736.8
103928,18746.4
103926,18755.7
103922,18764.8
103918,18773.6
103913,18781.8
103908,18789.6
103901,18796.8
103894,18803.2
103886,18809
103878,18814
103869,18818.1
103860,18821.4
103851,18823.7
103841,18825.1
103831,18825.6
103576,18825.6
103566,18825.1
103556,18823.7
103547,18821.4
103538,18818.1
103529,18814
103521,18809
103513,18803.2
103506,18796.8
103500,18789.6
103494,18781.8
103489,18773.6
103485,18764.8
103481,18755.7
103479,18746.4
103478,18736.8
103477,18727.2
103477,18372.8
103478,18363.2
103479,18353.6
103481,18344.3
103485,18335.2
103489,18326.4
103494,18318.2
103500,18310.4
103506,18303.2
103513,18296.8
103521,18291
103529,18286
103538,18281.9
103547,18278.6
103556,18276.3
103566,18274.9
103576,18274.4
103831,18274.4
Z" /> 
</g>
<g >
</g>
<g style="fill:#FFFFFF; fill-opacity:1.0; 
stroke:#FFFFFF; stroke-width:0; stroke-opacity:1; 
stroke-linecap:round; stroke-linejoin:round;">
<path style="fill:#FFFFFF; fill-opacity:1.0; 
stroke:#FFFFFF; stroke-width:0; stroke-opacity:1; 
stroke-linecap:round; stroke-linejoin:round;fill-rule:evenodd;"
d="M 105368,13524.5
105377,13525.9
105386,13528.3
105396,13531.5
105404,13535.6
105413,13540.6
105420,13546.4
105427,13552.8
105434,13560
105440,13567.8
105445,13576
105449,13584.8
105452,13593.9
105454,13603.2
105456,13612.8
105456,13622.4
105456,15177.6
105456,15187.2
105454,15196.8
105452,15206.1
105449,15215.2
105445,15224
105440,15232.2
105434,15240
105427,15247.2
105420,15253.6
105413,15259.4
105404,15264.4
105396,15268.5
105386,15271.7
105377,15274.1
105368,15275.5
105358,15276
104364,15276
104354,15275.5
104345,15274.1
104335,15271.7
104326,15268.5
104317,15264.4
104309,15259.4
104301,15253.6
104294,15247.2
104288,15240
104282,15232.2
104277,15224
104273,15215.2
104270,15206.1
104267,15196.8
104266,15187.2
104265,15177.6
104265,13622.4
104266,13612.8
104267,13603.2
104270,13593.9
104273,13584.8
104277,13576
104282,13567.8
104288,13560
104294,13552.8
104301,13546.4
104309,13540.6
104317,13535.6
104326,13531.5
104335,13528.3
104345,13525.9
104354,13524.5
104364,13524
105358,13524
Z" /> 
<path style="fill:#FFFFFF; fill-opacity:1.0; 
stroke:#FFFFFF; stroke-width:0; stroke-opacity:1; 
stroke-linecap:round; stroke-linejoin:round;fill-rule:evenodd;"
d="M 107346,13524.5
107355,13525.9
107365,13528.3
107374,13531.5
107383,13535.6
107391,13540.6
107399,13546.4
107406,13552.8
107412,13560
107418,13567.8
107423,13576
107427,13584.8
107430,13593.9
107433,13603.2
107434,13612.8
107435,13622.4
107435,15177.6
107434,15187.2
107433,15196.8
107430,15206.1
107427,15215.2
107423,15224
107418,15232.2
107412,15240
107406,15247.2
107399,15253.6
107391,15259.4
107383,15264.4
107374,15268.5
107365,15271.7
107355,15274.1
107346,15275.5
107336,15276
106342,15276
106332,15275.5
106323,15274.1
106314,15271.7
106304,15268.5
106296,15264.4
106287,15259.4
106280,15253.6
106273,15247.2
106266,15240
106260,15232.2
106255,15224
106251,15215.2
106248,15206.1
106246,15196.8
106244,15187.2
106244,15177.6
106244,13622.4
106244,13612.8
106246,13603.2
106248,13593.9
106251,13584.8
106255,13576
106260,13567.8
106266,13560
106273,13552.8
106280,13546.4
106287,13540.6
106296,13535.6
106304,13531.5
106314,13528.3
106323,13525.9
106332,13524.5
106342,13524
107336,13524
Z" /> 
</g>
<g >
</g>
<g style="fill:#FFFFFF; fill-opacity:1.0; 
stroke:#FFFFFF; stroke-width:0; stroke-opacity:1; 
stroke-linecap:round; stroke-linejoin:round;">
<path style="fill:#FFFFFF; fill-opacity:1.0; 
stroke:#FFFFFF; stroke-width:0; stroke-opacity:1; 
stroke-linecap:round; stroke-linejoin:round;fill-rule:evenodd;"
d="M 100031,13515.7
103969,13515.7
103969,15484.3
100031,15484.3
Z" /> 
</g>
<g >
</g>
<g style="fill:#FFFFFF; fill-opacity:1.0; 
stroke:#FFFFFF; stroke-width:0; stroke-opacity:1; 
stroke-linecap:round; stroke-linejoin:round;">
<path style="fill:#FFFFFF; fill-opacity:1.0; 
stroke:#FFFFFF; stroke-width:0; stroke-opacity:1; 
stroke-linecap:round; stroke-linejoin:round;fill-rule:evenodd;"
d="M 107337,15546.9
107347,15548.3
107356,15550.7
107365,15553.9
107374,15558.1
107382,15563
107390,15568.8
107397,15575.3
107404,15582.4
107409,15590.2
107414,15598.5
107418,15607.2
107422,15616.3
107424,15625.7
107426,15635.2
107426,15644.9
107426,16707.9
107426,16717.5
107424,16727.1
107422,16736.4
107418,16745.5
107414,16754.3
107409,16762.6
107404,16770.3
107397,16777.5
107390,16784
107382,16789.7
107374,16794.7
107365,16798.8
107356,16802.1
107347,16804.4
107337,16805.8
107328,16806.3
105772,16806.3
105763,16805.8
105753,16804.4
105744,16802.1
105735,16798.8
105726,16794.7
105718,16789.7
105710,16784
105703,16777.5
105696,16770.3
105691,16762.6
105686,16754.3
105682,16745.5
105678,16736.4
105676,16727.1
105674,16717.5
105674,16707.9
105674,15644.9
105674,15635.2
105676,15625.7
105678,15616.3
105682,15607.2
105686,15598.5
105691,15590.2
105696,15582.4
105703,15575.3
105710,15568.8
105718,15563
105726,15558.1
105735,15553.9
105744,15550.7
105753,15548.3
105763,15546.9
105772,15546.5
107328,15546.5
Z" /> 
<path style="fill:#FFFFFF; fill-opacity:1.0; 
stroke:#FFFFFF; stroke-width:0; stroke-opacity:1; 
stroke-linecap:round; stroke-linejoin:round;fill-rule:evenodd;"
d="M 107337,17594.2
107347,17595.6
107356,17597.9
107365,17601.2
107374,17605.3
107382,17610.3
107390,17616
107397,17622.5
107404,17629.7
107409,17637.4
107414,17645.7
107418,17654.5
107422,17663.6
107424,17672.9
107426,17682.5
107426,17692.1
107426,18755.1
107426,18764.8
107424,18774.3
107422,18783.7
107418,18792.8
107414,18801.5
107409,18809.8
107404,18817.6
107397,18824.7
107390,18831.2
107382,18837
107374,18841.9
107365,18846.1
107356,18849.3
107347,18851.7
107337,18853.1
107328,18853.5
105772,18853.5
105763,18853.1
105753,18851.7
105744,18849.3
105735,18846.1
105726,18841.9
105718,18837
105710,18831.2
105703,18824.7
105696,18817.6
105691,18809.8
105686,18801.5
105682,18792.8
105678,18783.7
105676,18774.3
105674,18764.8
105674,18755.1
105674,17692.1
105674,17682.5
105676,17672.9
105678,17663.6
105682,17654.5
105686,17645.7
105691,17637.4
105696,17629.7
105703,17622.5
105710,17616
105718,17610.3
105726,17605.3
105735,17601.2
105744,17597.9
105753,17595.6
105763,17594.2
105772,17593.7
107328,17593.7
Z" /> 
</g>
<g >
</g>
<g style="fill:#FFFFFF; fill-opacity:1.0; 
stroke:#FFFFFF; stroke-width:0; stroke-opacity:1; 
stroke-linecap:round; stroke-linejoin:round;">
<path style="fill:#FFFFFF; fill-opacity:1.0; 
stroke:#FFFFFF; stroke-width:0; stroke-opacity:1; 
stroke-linecap:round; stroke-linejoin:round;fill-rule:evenodd;"
d="M 100887,17744.2
100897,17745.6
100906,17747.9
100915,17751.2
100924,17755.3
100932,17760.3
100940,17766
100947,17772.5
100954,17779.7
100959,17787.4
100964,17795.7
100968,17804.5
100972,17813.6
100974,17822.9
100976,17832.5
100976,17842.1
100976,18905.1
100976,18914.8
100974,18924.3
100972,18933.7
100968,18942.8
100964,18951.5
100959,18959.8
100954,18967.6
100947,18974.7
100940,18981.2
100932,18987
100924,18991.9
100915,18996.1
100906,18999.3
100897,19001.7
100887,19003.1
100878,19003.5
99322.4,19003.5
99312.8,19003.1
99303.2,19001.7
99293.9,18999.3
99284.8,18996.1
99276,18991.9
99267.8,18987
99260,18981.2
99252.8,18974.7
99246.4,18967.6
99240.6,18959.8
99235.6,18951.5
99231.5,18942.8
99228.3,18933.7
99225.9,18924.3
99224.5,18914.8
99224,18905.1
99224,17842.1
99224.5,17832.5
99225.9,17822.9
99228.3,17813.6
99231.5,17804.5
99235.6,17795.7
99240.6,17787.4
99246.4,17779.7
99252.8,17772.5
99260,17766
99267.8,17760.3
99276,17755.3
99284.8,17751.2
99293.9,17747.9
99303.2,17745.6
99312.8,17744.2
99322.4,17743.7
100878,17743.7
Z" /> 
<path style="fill:#FFFFFF; fill-opacity:1.0; 
stroke:#FFFFFF; stroke-width:0; stroke-opacity:1; 
stroke-linecap:round; stroke-linejoin:round;fill-rule:evenodd;"
d="M 100887,15696.9
100897,15698.3
100906,15700.7
100915,15703.9
100924,15708.1
100932,15713
100940,15718.8
100947,15725.3
100954,15732.4
100959,15740.2
100964,15748.5
100968,15757.2
100972,15766.3
100974,15775.7
100976,15785.2
100976,15794.9
100976,16857.9
100976,16867.5
100974,16877.1
100972,16886.4
100968,16895.5
100964,16904.3
100959,16912.6
100954,16920.3
100947,16927.5
100940,16934
100932,16939.7
100924,16944.7
100915,16948.8
100906,16952.1
100897,16954.4
100887,16955.8
100878,16956.3
99322.4,16956.3
99312.8,16955.8
99303.2,16954.4
99293.9,16952.1
99284.8,16948.8
99276,16944.7
99267.8,16939.7
99260,16934
99252.8,16927.5
99246.4,16920.3
99240.6,16912.6
99235.6,16904.3
99231.5,16895.5
99228.3,16886.4
99225.9,16877.1
99224.5,16867.5
99224,16857.9
99224,15794.9
99224.5,15785.2
99225.9,15775.7
99228.3,15766.3
99231.5,15757.2
99235.6,15748.5
99240.6,15740.2
99246.4,15732.4
99252.8,15725.3
99260,15718.8
99267.8,15713
99276,15708.1
99284.8,15703.9
99293.9,15700.7
99303.2,15698.3
99312.8,15696.9
99322.4,15696.5
100878,15696.5
Z" /> 
</g>
<g >
</g>
<g style="fill:#FFFFFF; fill-opacity:1.0; 
stroke:#FFFFFF; stroke-width:0; stroke-opacity:1; 
stroke-linecap:round; stroke-linejoin:round;">
<path style="fill:#FFFFFF; fill-opacity:1.0; 
stroke:#FFFFFF; stroke-width:0; stroke-opacity:1; 
stroke-linecap:round; stroke-linejoin:round;fill-rule:evenodd;"
d="M 105159,16618.1
105168,16619.4
105176,16621.4
105184,16624.3
105191,16627.9
105199,16632.2
105206,16637.3
105212,16642.9
105217,16649.2
105222,16656
105227,16663.2
105230,16670.9
105233,16678.8
105235,16687
105237,16695.4
105237,16703.8
105237,16876.1
105237,16884.5
105235,16892.9
105233,16901.1
105230,16909
105227,16916.7
105222,16923.9
105217,16930.7
105212,16937
105206,16942.7
105199,16947.7
105191,16952
105184,16955.6
105176,16958.5
105168,16960.5
105159,16961.8
105151,16962.2
104949,16962.2
104941,16961.8
104932,16960.5
104924,16958.5
104916,16955.6
104909,16952
104901,16947.7
104894,16942.7
104888,16937
104883,16930.7
104878,16923.9
104873,16916.7
104870,16909
104867,16901.1
104865,16892.9
104863,16884.5
104863,16876.1
104863,16703.8
104863,16695.4
104865,16687
104867,16678.8
104870,16670.9
104873,16663.2
104878,16656
104883,16649.2
104888,16642.9
104894,16637.3
104901,16632.2
104909,16627.9
104916,16624.3
104924,16621.4
104932,16619.4
104941,16618.1
104949,16617.7
105151,16617.7
Z" /> 
<path style="fill:#FFFFFF; fill-opacity:1.0; 
stroke:#FFFFFF; stroke-width:0; stroke-opacity:1; 
stroke-linecap:round; stroke-linejoin:round;fill-rule:evenodd;"
d="M 105159,17238.2
105168,17239.5
105176,17241.5
105184,17244.4
105191,17248
105199,17252.3
105206,17257.3
105212,17263
105217,17269.3
105222,17276.1
105227,17283.3
105230,17291
105233,17298.9
105235,17307.1
105237,17315.5
105237,17323.9
105237,17496.2
105237,17504.6
105235,17513
105233,17521.2
105230,17529.1
105227,17536.8
105222,17544
105217,17550.8
105212,17557.1
105206,17562.7
105199,17567.8
105191,17572.1
105184,17575.7
105176,17578.6
105168,17580.6
105159,17581.9
105151,17582.3
104949,17582.3
104941,17581.9
104932,17580.6
104924,17578.6
104916,17575.7
104909,17572.1
104901,17567.8
104894,17562.7
104888,17557.1
104883,17550.8
104878,17544
104873,17536.8
104870,17529.1
104867,17521.2
104865,17513
104863,17504.6
104863,17496.2
104863,17323.9
104863,17315.5
104865,17307.1
104867,17298.9
104870,17291
104873,17283.3
104878,17276.1
104883,17269.3
104888,17263
104894,17257.3
104901,17252.3
104909,17248
104916,17244.4
104924,17241.5
104932,17239.5
104941,17238.2
104949,17237.8
105151,17237.8
Z" /> 
</g>
<g >
</g>
<g style="fill:#FFFFFF; fill-opacity:1.0; 
stroke:#FFFFFF; stroke-width:0; stroke-opacity:1; 
stroke-linecap:round; stroke-linejoin:round;">
<path style="fill:#FFFFFF; fill-opacity:1.0; 
stroke:#FFFFFF; stroke-width:0; stroke-opacity:1; 
stroke-linecap:round; stroke-linejoin:round;fill-rule:evenodd;"
d="M 101637,17127.6
101646,17129.1
101656,17131.4
101665,17134.7
101674,17138.8
101682,17143.8
101690,17149.5
101697,17156
101703,17163.2
101709,17170.9
101714,17179.2
101718,17187.9
101721,17197
101724,17206.4
101725,17215.9
101726,17225.6
101726,17481.5
101725,17491.1
101724,17500.7
101721,17510.1
101718,17519.2
101714,17527.9
101709,17536.2
101703,17543.9
101697,17551.1
101690,17557.6
101682,17563.3
101674,17568.3
101665,17572.4
101656,17575.7
101646,17578
101637,17579.4
101627,17579.9
101273,17579.9
101263,17579.4
101254,17578
101244,17575.7
101235,17572.4
101226,17568.3
101218,17563.3
101210,17557.6
101203,17551.1
101197,17543.9
101191,17536.2
101186,17527.9
101182,17519.2
101179,17510.1
101176,17500.7
101175,17491.1
101174,17481.5
101174,17225.6
101175,17215.9
101176,17206.4
101179,17197
101182,17187.9
101186,17179.2
101191,17170.9
101197,17163.2
101203,17156
101210,17149.5
101218,17143.8
101226,17138.8
101235,17134.7
101244,17131.4
101254,17129.1
101263,17127.6
101273,17127.2
101627,17127.2
Z" /> 
<path style="fill:#FFFFFF; fill-opacity:1.0; 
stroke:#FFFFFF; stroke-width:0; stroke-opacity:1; 
stroke-linecap:round; stroke-linejoin:round;fill-rule:evenodd;"
d="M 101637,16320.6
101646,16322
101656,16324.3
101665,16327.6
101674,16331.7
101682,16336.7
101690,16342.4
101697,16348.9
101703,16356.1
101709,16363.8
101714,16372.1
101718,16380.8
101721,16389.9
101724,16399.3
101725,16408.9
101726,16418.5
101726,16674.4
101725,16684.1
101724,16693.6
101721,16703
101718,16712.1
101714,16720.8
101709,16729.1
101703,16736.8
101697,16744
101690,16750.5
101682,16756.2
101674,16761.2
101665,16765.3
101656,16768.6
101646,16770.9
101637,16772.4
101627,16772.8
101273,16772.8
101263,16772.4
101254,16770.9
101244,16768.6
101235,16765.3
101226,16761.2
101218,16756.2
101210,16750.5
101203,16744
101197,16736.8
101191,16729.1
101186,16720.8
101182,16712.1
101179,16703
101176,16693.6
101175,16684.1
101174,16674.4
101174,16418.5
101175,16408.9
101176,16399.3
101179,16389.9
101182,16380.8
101186,16372.1
101191,16363.8
101197,16356.1
101203,16348.9
101210,16342.4
101218,16336.7
101226,16331.7
101235,16327.6
101244,16324.3
101254,16322
101263,16320.6
101273,16320.1
101627,16320.1
Z" /> 
</g>
<g >
</g>
<g style="fill:#FFFFFF; fill-opacity:1.0; 
stroke:#FFFFFF; stroke-width:0; stroke-opacity:1; 
stroke-linecap:round; stroke-linejoin:round;">
<path style="fill:#FFFFFF; fill-opacity:1.0; 
stroke:#FFFFFF; stroke-width:0; stroke-opacity:1; 
stroke-linecap:round; stroke-linejoin:round;fill-rule:evenodd;"
d="M 102391,18274.9
102401,18276.3
102410,18278.6
102419,18281.9
102428,18286
102436,18291
102444,18296.8
102451,18303.2
102458,18310.4
102463,18318.2
102468,18326.4
102472,18335.2
102476,18344.3
102478,18353.6
102479,18363.2
102480,18372.8
102480,18727.2
102479,18736.8
102478,18746.4
102476,18755.7
102472,18764.8
102468,18773.6
102463,18781.8
102458,18789.6
102451,18796.8
102444,18803.2
102436,18809
102428,18814
102419,18818.1
102410,18821.4
102401,18823.7
102391,18825.1
102381,18825.6
102126,18825.6
102116,18825.1
102106,18823.7
102097,18821.4
102088,18818.1
102079,18814
102071,18809
102063,18803.2
102056,18796.8
102050,18789.6
102044,18781.8
102039,18773.6
102035,18764.8
102031,18755.7
102029,18746.4
102028,18736.8
102027,18727.2
102027,18372.8
102028,18363.2
102029,18353.6
102031,18344.3
102035,18335.2
102039,18326.4
102044,18318.2
102050,18310.4
102056,18303.2
102063,18296.8
102071,18291
102079,18286
102088,18281.9
102097,18278.6
102106,18276.3
102116,18274.9
102126,18274.4
102381,18274.4
Z" /> 
<path style="fill:#FFFFFF; fill-opacity:1.0; 
stroke:#FFFFFF; stroke-width:0; stroke-opacity:1; 
stroke-linecap:round; stroke-linejoin:round;fill-rule:evenodd;"
d="M 101584,18274.9
101594,18276.3
101603,18278.6
101612,18281.9
101621,18286
101629,18291
101637,18296.8
101644,18303.2
101650,18310.4
101656,18318.2
101661,18326.4
101665,18335.2
101669,18344.3
101671,18353.6
101672,18363.2
101673,18372.8
101673,18727.2
101672,18736.8
101671,18746.4
101669,18755.7
101665,18764.8
101661,18773.6
101656,18781.8
101650,18789.6
101644,18796.8
101637,18803.2
101629,18809
101621,18814
101612,18818.1
101603,18821.4
101594,18823.7
101584,18825.1
101574,18825.6
101319,18825.6
101309,18825.1
101299,18823.7
101290,18821.4
101281,18818.1
101272,18814
101264,18809
101256,18803.2
101249,18796.8
101242,18789.6
101237,18781.8
101232,18773.6
101228,18764.8
101224,18755.7
101222,18746.4
101221,18736.8
101220,18727.2
101220,18372.8
101221,18363.2
101222,18353.6
101224,18344.3
101228,18335.2
101232,18326.4
101237,18318.2
101242,18310.4
101249,18303.2
101256,18296.8
101264,18291
101272,18286
101281,18281.9
101290,18278.6
101299,18276.3
101309,18274.9
101319,18274.4
101574,18274.4
Z" /> 
</g>
<g >
</g>
<g >
</g>
<g style="fill:#FFFFFF; fill-opacity:1.0; 
stroke:#FFFFFF; stroke-width:0; stroke-opacity:1; 
stroke-linecap:round; stroke-linejoin:round;">
</g>
<g style="fill:#FFFFFF; fill-opacity:1.0; 
stroke:#FFFFFF; stroke-width:157.48; stroke-opacity:1; 
stroke-linecap:round; stroke-linejoin:round;">
</g>
<g style="fill:#FFFFFF; fill-opacity:0.0; 
stroke:#FFFFFF; stroke-width:157.48; stroke-opacity:1; 
stroke-linecap:round; stroke-linejoin:round;">
<path d="M104982 16857
L105050 16789
" />
<path d="M104307 16857
L104982 16857
" />
<path d="M100100 16326
L100276 16326
" />
<path d="M100496 16546
L101450 16546
" />
<path d="M100276 16326
L100496 16546
" />
<path d="M104997 17357
L105050 17410
" />
<path d="M104307 17357
L104997 17357
" />
<path d="M105050 17410
L105289 17410
" />
<path d="M107500 14400
L106839 14400
" />
<path d="M105050 17410
L105439 17410
" />
<path d="M105650 17200
L107450 17200
" />
<path d="M105439 17410
L105650 17200
" />
<path d="M107450 17200
L107700 16950
" />
<path d="M107700 14600
L107500 14400
" />
<path d="M107700 16950
L107700 14600
" />
<path d="M102896 18550
L102253 18550
" />
<path d="M100276 18550
L100100 18373
" />
<path d="M101446 18550
L100276 18550
" />
<path d="M102240 16857
L102240 17357
" />
<path d="M101454 17357
L101450 17353
" />
<path d="M102240 17357
L101454 17357
" />
<path d="M104307 16357
L104892 16357
" />
<path d="M105073 16176
L106550 16176
" />
<path d="M104892 16357
L105073 16176
" />
<path d="M102240 14740
L102000 14500
" />
<path d="M102240 16357
L102240 14740
" />
<path d="M104346 18550
L103703 18550
" />
<path d="M103703 18550
L103703 18203
" />
<path d="M103357 17857
L102240 17857
" />
<path d="M103703 18203
L103357 17857
" />
<path d="M106550 18223
L105323 18223
" />
<path d="M104957 17857
L104307 17857
" />
<path d="M105153 18550
L105153 18146
" />
<path d="M105323 18223
L105200 18100
" />
<path d="M105153 18146
L105200 18100
" />
<path d="M105200 18100
L104957 17857
" />
</g>
<g >
</g>
<g style="fill:#FFFFFF; fill-opacity:0.0; 
stroke:#FFFFFF; stroke-width:157.48; stroke-opacity:1; 
stroke-linecap:round; stroke-linejoin:round;">
</g>
<g style="fill:#FFFFFF; fill-opacity:1.0; 
stroke:#FFFFFF; stroke-width:100; stroke-opacity:1; 
stroke-linecap:round; stroke-linejoin:round;">
<path style="fill:#FFFFFF; fill-opacity:1.0; 
stroke:#FFFFFF; stroke-width:100; stroke-opacity:1; 
stroke-linecap:round; stroke-linejoin:round;fill-rule:evenodd;"
d="M 108400,19500
98600,19500
98600,16956.3
98972.8,16956.3
98977.6,17005.3
98991.9,17052.4
99015.1,17095.9
99046.4,17133.9
99084.5,17165.2
99127.9,17188.4
99175,17202.7
99224,17207.5
99987.5,17206.3
100050,17143.8
100050,16376.4
99036.5,16376.4
98974,16438.9
98972.8,16956.3
98600,16956.3
98600,15696.5
98972.8,15696.5
98974,16213.9
99036.5,16276.4
100050,16276.4
100050,16268.5
100150,16268.5
100150,16276.4
100158,16276.4
100158,16376.4
100150,16376.4
100150,17143.8
100212,17206.3
100925,17207.4
100923,17225.6
100923,17481.5
100925,17497.1
100878,17492.5
99322.4,17492.5
99254.2,17499.2
99188.6,17519.1
99128.2,17551.4
99075.2,17594.9
99031.7,17647.9
98999.4,17708.3
98979.5,17773.9
98972.8,17842.1
98972.8,18905.1
98979.5,18973.3
98999.4,19038.9
99031.7,19099.4
99075.2,19152.3
99128.2,19195.8
99188.6,19228.1
99254.2,19248
99322.4,19254.8
100878,19254.8
100946,19248
101011,19228.1
101072,19195.8
101125,19152.3
101168,19099.4
101193,19052.8
101250,19070.1
101319,19076.8
101574,19076.8
101643,19070.1
101708,19050.2
101769,19017.9
101822,18974.4
101850,18939.8
101878,18974.4
101931,19017.9
101992,19050.2
102057,19070.1
102126,19076.8
102381,19076.8
102450,19070.1
102515,19050.2
102575,19018.3
102635,19050.2
102700,19070.1
102769,19076.8
103024,19076.8
103093,19070.1
103158,19050.2
103219,19017.9
103272,18974.4
103300,18939.8
103328,18974.4
103381,19017.9
103442,19050.2
103507,19070.1
103576,19076.8
103831,19076.8
103900,19070.1
103965,19050.2
104025,19018.3
104085,19050.2
104150,19070.1
104219,19076.8
104474,19076.8
104543,19070.1
104608,19050.2
104669,19017.9
104722,18974.4
104750,18939.8
104778,18974.4
104831,19017.9
104892,19050.2
104957,19070.1
105026,19076.8
105281,19076.8
105350,19070.1
105415,19050.2
105476,19017.9
105513,18987.4
105525,19002.3
105578,19045.8
105639,19078.1
105704,19098
105772,19104.8
107328,19104.8
107396,19098
107461,19078.1
107522,19045.8
107575,19002.3
107618,18949.4
107651,18888.9
107670,18823.3
107677,18755.1
107677,17692.1
107670,17623.9
107651,17558.3
107618,17497.9
107610,17487.4
107634,17474.7
107684,17433.6
107694,17421
107921,17193.9
107934,17183.6
107950,17163.5
107975,17133.5
108005,17076.4
108014,17048.4
108024,17014.4
108029,16966.1
108029,16966.1
108030,16950
108029,16933.9
108029,14616.1
108030,14600
108029,14583.9
108029,14583.9
108024,14535.6
108005,14473.6
107975,14416.5
107934,14366.4
107921,14356.1
107744,14179
107734,14166.4
107686,14127.3
107686,13622.4
107679,13554.2
107659,13488.6
107627,13428.2
107583,13375.2
107530,13331.7
107470,13299.4
107404,13279.5
107336,13272.8
106342,13272.8
106274,13279.5
106208,13299.4
106148,13331.7
106095,13375.2
106051,13428.2
106019,13488.6
105999,13554.2
105992,13622.4
105992,15177.6
105999,15245.8
106014,15295.2
105772,15295.2
105705,15301.9
105708,15276
105706,14512.5
105644,14450
104911,14450
104911,15463.5
104973,15526
105445,15527.2
105430,15576.7
105423,15644.9
105423,15847.6
105090,15847.6
105074,15846
105057,15847.6
105057,15847.6
105009,15852.4
104947,15871.2
104890,15901.7
104840,15942.8
104830,15955.3
104756,16029.1
104724,16029.1
104692,16012.2
104634,15994.5
104574,15988.6
104042,15988.6
103982,15994.5
103923,16012.2
103870,16040.8
103823,16079.4
103784,16126.4
103755,16180.1
103738,16238.3
103732,16298.8
103732,16416.9
103738,16477.5
103755,16535.7
103784,16588.6
103774,16600.2
103751,16643.6
103737,16690.8
103732,16739.8
103733,16745.4
103796,16807.9
104258,16807.9
104258,16800
104358,16800
104358,16807.9
104366,16807.9
104366,16907.9
104358,16907.9
104358,16915.7
104258,16915.7
104258,16907.9
103796,16907.9
103733,16970.4
103732,16976
103737,17025
103751,17072.1
103774,17115.5
103784,17127.2
103755,17180.1
103738,17238.3
103732,17298.8
103732,17416.9
103738,17477.5
103755,17535.7
103784,17589.3
103799,17607.9
103784,17626.4
103755,17680.1
103738,17738.3
103735,17769.8
103602,17636.8
103591,17624.3
103541,17583.2
103484,17552.7
103422,17533.9
103374,17529.1
103374,17529.1
103358,17527.5
103342,17529.1
102795,17529.1
102811,17477.5
102817,17416.9
102817,17298.8
102811,17238.3
102793,17180.1
102765,17126.4
102749,17107.9
102765,17089.3
102793,17035.7
102811,16977.5
102817,16916.9
102817,16798.8
102811,16738.3
102793,16680.1
102765,16626.4
102749,16607.9
102765,16589.3
102793,16535.7
102811,16477.5
102817,16416.9
102817,16298.8
102811,16238.3
102793,16180.1
102765,16126.4
102726,16079.4
102679,16040.8
102625,16012.2
102570,15995.3
102570,15735.5
103969,15735.5
104018,15730.6
104065,15716.3
104108,15693.1
104146,15661.9
104177,15623.8
104201,15580.4
104215,15533.3
104216,15522.3
104216,15522.4
104265,15527.2
104748,15526
104811,15463.5
104811,14450
104803,14450
104803,14350
104811,14350
104811,13336.5
104911,13336.5
104911,14350
105644,14350
105706,14287.5
105708,13524
105703,13475
105688,13427.9
105665,13384.5
105634,13346.4
105596,13315.1
105552,13291.9
105505,13277.6
105456,13272.8
104973,13274
104911,13336.5
104811,13336.5
104748,13274
104265,13272.8
104216,13277.6
104169,13291.9
104126,13315.1
104122,13318.3
104108,13306.9
104065,13283.7
104018,13269.4
103969,13264.5
100031,13264.5
99982.5,13269.4
99935.4,13283.7
99891.9,13306.9
99853.9,13338.1
99822.6,13376.2
99799.4,13419.6
99785.1,13466.7
99780.3,13515.7
99780.3,15446.1
99224,15445.2
99175,15450.1
99127.9,15464.4
99084.5,15487.6
99046.4,15518.8
99015.1,15556.9
98991.9,15600.3
98977.6,15647.4
98972.8,15696.5
98600,15696.5
98600,13150
108400,13150
Z" /> 
<path style="fill:#FFFFFF; fill-opacity:1.0; 
stroke:#FFFFFF; stroke-width:100; stroke-opacity:1; 
stroke-linecap:round; stroke-linejoin:round;fill-rule:evenodd;"
d="M 105100,16740
105108,16740
105108,16840
105100,16840
105100,16847.8
105000,16847.8
105000,16840
104992,16840
104992,16740
105000,16740
105000,16732.1
105100,16732.1
Z" /> 
<path style="fill:#FFFFFF; fill-opacity:1.0; 
stroke:#FFFFFF; stroke-width:100; stroke-opacity:1; 
stroke-linecap:round; stroke-linejoin:round;fill-rule:evenodd;"
d="M 101912,15995.3
101856,16012.2
101803,16040.8
101764,16072.7
101726,16068.9
101562,16070.1
101500,16132.6
101500,16496.5
101508,16496.5
101508,16596.5
101500,16596.5
101500,16604.3
101400,16604.3
101400,16596.5
101392,16596.5
101392,16496.5
101400,16496.5
101400,16132.6
101338,16070.1
101226,16069.3
101227,15735.5
101912,15735.5
Z" /> 
</g>
</g> 
</svg>
